<svg width="408" height="410" viewBox="0 0 408 410" fill="none" xmlns="http://www.w3.org/2000/svg">
<path d="M59.6032 209.334C-19.8692 255.239 -19.8692 329.665 59.6118 375.571C139.093 421.476 268.035 421.476 347.498 375.571C426.962 329.665 427.006 255.239 347.498 209.334C267.991 163.428 139.11 163.436 59.6032 209.334Z" fill="#FAFAFA"/>
<path d="M131.367 9.11353L134.185 10.6917V76.368L131.367 74.7985V9.11353Z" fill="#FAFAFA"/>
<path d="M131.367 74.7984V12.3218L17.5215 77.9721L17.5475 140.44L131.367 74.7984Z" fill="white"/>
<path d="M139.414 79.3942V1.63013L12.2927 74.9545V152.71L139.414 79.3942ZM17.5215 143.648V77.9721L134.185 10.6916V76.3679L17.5215 143.648Z" fill="#F0F0F0"/>
<path d="M134.185 76.3681L131.367 74.7986L17.5475 140.44L17.5215 143.649L134.185 76.3681Z" fill="#E0E0E0"/>
<path d="M12.2928 152.71L9.49194 151.08V73.3157L12.2928 74.9546V152.71Z" fill="#FAFAFA"/>
<path d="M9.49194 73.3157L12.2928 74.9546L139.414 1.6302L136.613 0L9.49194 73.3157Z" fill="#E0E0E0"/>
<path d="M126.537 72.8993V19.7964L23.7822 79.0386V132.15L126.537 72.8993Z" fill="#F0F0F0"/>
<path d="M126.537 72.8993V19.7964L23.7822 79.0386V132.15L126.537 72.8993Z" fill="#F0F0F0"/>
<path d="M94.592 38.249C95.8174 40.0696 96.8988 41.9831 97.8264 43.972C101.161 50.8894 103.513 58.2385 104.815 65.8063C105.813 71.6508 106.29 77.7987 109.09 82.9841L126.58 72.8994V65.7109C123.434 64.7152 120.565 62.9957 118.204 60.6902C111.753 54.1781 111.067 44.0761 107.417 35.6736C106.855 34.3985 106.221 33.1564 105.518 31.9536L94.592 38.249Z" fill="#FAFAFA"/>
<path d="M72.1506 51.1172C74.6566 61.5227 77.7435 71.9283 74.882 82.091C72.5668 90.2594 66.6616 96.8929 60.479 102.711C54.2964 108.53 47.5761 113.984 42.8503 120.999C42.7983 121.068 42.7636 121.146 42.7202 121.216L89.5452 94.2482C90.0047 93.3204 90.4643 92.3925 90.8805 91.4387C95.4243 81.0331 97.0718 68.5638 91.9037 58.4271C89.4758 53.6666 85.6257 49.5043 82.9983 44.9172L72.1506 51.1172Z" fill="#FAFAFA"/>
<path d="M45.6512 66.4222C43.5701 76.7323 36.0087 85.9759 26.0368 89.5051C25.291 89.7739 24.5453 89.9994 23.7822 90.2075V110.637C24.7534 109.995 25.7333 109.362 26.7218 108.755C32.4795 105.217 38.5147 102 43.4747 97.4047C47.6192 93.5158 50.8797 88.7817 53.0355 83.5231C55.1913 78.2645 56.1921 72.6041 55.97 66.9251C55.8709 64.9015 55.6099 62.8892 55.1896 60.9072L45.6512 66.4222Z" fill="#FAFAFA"/>
<path d="M287.433 213.99C262.737 228.245 262.737 251.354 287.433 265.619C312.128 279.883 352.164 279.874 376.859 265.619C401.555 251.363 401.555 228.245 376.859 213.99C352.164 199.734 312.128 199.682 287.433 213.99Z" fill="#E0E0E0"/>
<path d="M165.055 379.733L46.4838 311.23C44.8189 310.267 44.8189 308.706 46.4838 307.761L190.722 224.395C191.654 223.921 192.685 223.674 193.731 223.674C194.777 223.674 195.808 223.921 196.74 224.395L315.32 292.898C316.985 293.861 316.985 295.413 315.32 296.367L171.081 379.733C170.148 380.207 169.115 380.454 168.068 380.454C167.021 380.454 165.989 380.207 165.055 379.733Z" fill="#E0E0E0"/>
<path d="M76.547 388.491L120.068 363.344C121.369 362.589 121.369 361.367 120.068 360.612L52.2327 321.514C51.502 321.142 50.6938 320.948 49.8741 320.948C49.0543 320.948 48.2462 321.142 47.5155 321.514L3.99432 346.66C2.69363 347.415 2.69363 348.637 3.99432 349.392L71.8211 388.551C72.5577 388.915 73.3699 389.099 74.1913 389.089C75.0127 389.078 75.82 388.873 76.547 388.491Z" fill="#E0E0E0"/>
<path d="M301.176 133.868C301.203 133.557 301.313 133.26 301.495 133.006C301.676 132.753 301.923 132.553 302.208 132.428C302.98 132.035 303.834 131.83 304.701 131.83C305.568 131.83 306.422 132.035 307.194 132.428C307.481 132.552 307.729 132.751 307.913 133.005C308.096 133.258 308.207 133.556 308.235 133.868L281.726 243.915C281.7 244.13 281.62 244.334 281.492 244.509C281.365 244.683 281.195 244.822 280.998 244.912C280.451 245.19 279.847 245.335 279.233 245.335C278.62 245.335 278.016 245.19 277.469 244.912C277.271 244.823 277.1 244.685 276.973 244.51C276.845 244.335 276.765 244.13 276.74 243.915L301.176 133.868Z" fill="#455A64"/>
<path d="M362.257 133.867C362.23 133.557 362.12 133.259 361.939 133.006C361.757 132.753 361.51 132.553 361.225 132.428C360.451 132.035 359.596 131.83 358.728 131.83C357.86 131.83 357.004 132.035 356.23 132.428C355.945 132.553 355.698 132.753 355.517 133.006C355.335 133.259 355.225 133.557 355.198 133.867L381.698 243.915C381.722 244.13 381.803 244.335 381.93 244.51C382.058 244.684 382.229 244.823 382.426 244.912C382.973 245.19 383.578 245.335 384.191 245.335C384.804 245.335 385.409 245.19 385.956 244.912C386.151 244.821 386.32 244.682 386.446 244.507C386.572 244.333 386.651 244.129 386.675 243.915V243.915L362.257 133.867Z" fill="#455A64"/>
<path d="M335.653 137.501C335.627 137.19 335.517 136.893 335.335 136.64C335.153 136.386 334.907 136.187 334.622 136.061C333.849 135.668 332.995 135.463 332.129 135.463C331.262 135.463 330.408 135.668 329.636 136.061C329.348 136.185 329.1 136.384 328.917 136.638C328.734 136.891 328.623 137.189 328.595 137.501L329.636 261.613C329.66 261.828 329.74 262.033 329.868 262.208C329.996 262.383 330.166 262.521 330.364 262.61C330.911 262.888 331.515 263.033 332.129 263.033C332.742 263.033 333.346 262.888 333.893 262.61C334.09 262.52 334.26 262.381 334.387 262.206C334.515 262.032 334.595 261.828 334.622 261.613V261.613L335.653 137.501Z" fill="#455A64"/>
<path d="M395.381 152.424H395.321C395.321 143.077 389.207 133.738 376.859 126.61C352.164 112.354 312.128 112.354 287.432 126.61C275.085 133.738 268.963 143.085 268.971 152.424H268.885V157.445C269.032 166.663 275.223 175.854 287.406 182.895C312.102 197.151 352.138 197.151 376.833 182.895C389.016 175.854 395.208 166.663 395.355 157.445L395.381 152.424Z" fill="#59114D"/>
<path d="M287.432 126.584C262.736 140.839 262.736 163.957 287.432 178.213C312.128 192.468 352.163 192.468 376.859 178.213C401.555 163.957 401.555 140.839 376.859 126.584C352.163 112.328 312.128 112.328 287.432 126.584Z" fill="#59114D"/>
<path opacity="0.45" d="M287.432 126.584C262.736 140.839 262.736 163.957 287.432 178.213C312.128 192.468 352.163 192.468 376.859 178.213C401.555 163.957 401.555 140.839 376.859 126.584C352.163 112.328 312.128 112.328 287.432 126.584Z" fill="white"/>
<g opacity="0.1">
<path d="M375.984 139.139C382.808 143.085 382.808 149.484 375.984 153.43C369.159 157.375 358.078 157.367 351.245 153.43C344.412 149.493 344.412 143.085 351.245 139.139C358.078 135.194 369.151 135.194 375.984 139.139Z" fill="black"/>
</g>
<path d="M352.727 147.161C346.77 141.091 343.276 125.933 349.085 121.147H378.611C384.421 125.968 380.926 141.091 374.978 147.161L374.813 147.325L374.614 147.525C374.44 147.69 374.267 147.846 374.076 148.002L373.929 148.114C373.781 148.227 373.642 148.349 373.478 148.453C373.233 148.631 372.978 148.796 372.715 148.947C367.815 151.774 359.881 151.774 354.991 148.947C354.73 148.799 354.479 148.635 354.219 148.453C353.959 148.271 353.941 148.245 353.803 148.132L353.629 148.002C353.438 147.846 353.265 147.69 353.109 147.533L352.875 147.308L352.727 147.161Z" fill="#EBEBEB"/>
<path d="M376.053 119.178C382.791 123.063 382.791 129.376 376.053 133.26C369.315 137.145 358.39 137.154 351.652 133.26C344.914 129.367 344.914 123.063 351.652 119.178C358.39 115.294 369.315 115.285 376.053 119.178Z" fill="#FAFAFA"/>
<path d="M371.275 121.936C375.368 124.303 375.368 128.136 371.275 130.503C367.182 132.87 360.523 132.87 356.43 130.503C352.337 128.136 352.328 124.303 356.43 121.936C360.531 119.568 367.174 119.568 371.275 121.936Z" fill="#EBEBEB"/>
<path d="M356.465 126.003C360.557 123.635 367.208 123.635 371.31 126.003C372.301 126.541 373.143 127.316 373.764 128.257C373.14 129.194 372.298 129.965 371.31 130.503C367.208 132.87 360.557 132.87 356.465 130.503C355.473 129.966 354.628 129.195 354.002 128.257C354.624 127.314 355.47 126.539 356.465 126.003V126.003Z" fill="#E0E0E0"/>
<path d="M370.339 128.257C372.441 126.125 374.249 123.722 375.715 121.112C378.195 116.776 378.646 110.854 377.371 110.134C376.097 109.414 370.868 115.268 370.868 115.268C371.348 112.804 371.531 110.292 371.414 107.784C371.197 103.874 370.243 100.327 369.125 99.6073C368.006 98.8875 365.509 103.822 364.434 107.411C363.358 111.001 362.699 113.915 362.699 113.915C362.271 111.129 361.627 108.381 360.774 105.695C359.474 101.992 358.294 101.151 357.384 101.524C356.473 101.896 355.858 103.613 355.589 108.556C355.495 110.911 355.571 113.27 355.814 115.614C355.814 115.614 353.976 113.594 351.93 111.634C349.692 109.475 348.73 109.18 348.088 109.588C347.447 109.995 347.273 113.351 350.742 119.638C352.467 122.849 354.679 125.773 357.297 128.309C357.297 128.309 362.153 131.353 370.339 128.257Z" fill="#59114D"/>
<path opacity="0.3" d="M370.339 128.257C372.441 126.125 374.249 123.722 375.715 121.112C378.195 116.776 378.646 110.854 377.371 110.134C376.097 109.414 370.868 115.268 370.868 115.268C371.348 112.804 371.531 110.292 371.414 107.784C371.197 103.874 370.243 100.327 369.125 99.6073C368.006 98.8875 365.509 103.822 364.434 107.411C363.358 111.001 362.699 113.915 362.699 113.915C362.271 111.129 361.627 108.381 360.774 105.695C359.474 101.992 358.294 101.151 357.384 101.524C356.473 101.896 355.858 103.613 355.589 108.556C355.495 110.911 355.571 113.27 355.814 115.614C355.814 115.614 353.976 113.594 351.93 111.634C349.692 109.475 348.73 109.18 348.088 109.588C347.447 109.995 347.273 113.351 350.742 119.638C352.467 122.849 354.679 125.773 357.297 128.309C357.297 128.309 362.153 131.353 370.339 128.257Z" fill="black"/>
<path d="M324.797 142.201C324.797 139.747 323.193 137.293 319.95 135.42C313.463 131.674 302.945 131.674 296.459 135.42C293.216 137.293 291.612 139.755 291.612 142.201V143.753C291.655 146.181 293.277 148.592 296.476 150.439C302.963 154.185 313.481 154.185 319.967 150.439C323.167 148.592 324.788 146.181 324.832 143.753L324.797 142.201Z" fill="#37474F"/>
<path d="M296.442 135.42C289.956 139.166 289.956 145.236 296.442 148.982C302.928 152.728 313.446 152.728 319.932 148.982C326.418 145.236 326.418 139.166 319.932 135.42C313.446 131.674 302.928 131.674 296.442 135.42Z" fill="#455A64"/>
<path d="M306.171 94.3787H310.325V139.92C310.333 140.12 310.281 140.318 310.174 140.487C310.067 140.656 309.911 140.788 309.726 140.865C309.272 141.1 308.768 141.223 308.257 141.223C307.745 141.223 307.241 141.1 306.787 140.865C306.603 140.788 306.447 140.656 306.341 140.487C306.236 140.317 306.185 140.119 306.197 139.92V139.92L306.171 94.3787Z" fill="#37474F"/>
<path d="M281.302 84.9789L293.988 52.635H322.499L335.176 84.9789C336.98 90.0343 334.5 95.4972 327.702 99.4253C316.958 105.625 299.537 105.625 288.794 99.4253C281.978 95.4972 279.498 90.0343 281.302 84.9789Z" fill="#59114D"/>
<g opacity="0.4">
<path d="M281.302 84.9789L293.988 52.635H322.499L335.176 84.9789C336.98 90.0343 334.5 95.4972 327.702 99.4253C316.958 105.625 299.537 105.625 288.794 99.4253C281.978 95.4972 279.498 90.0343 281.302 84.9789Z" fill="white"/>
</g>
<path opacity="0.2" d="M295.332 91.1182C290.173 82.733 296.78 66.8386 301.636 53.5888V52.635H293.979L281.293 84.9789C279.489 90.0343 281.969 95.4972 288.768 99.4253C299.511 105.625 316.932 105.625 327.676 99.4253C317.973 103.232 300.5 99.5293 295.332 91.1182Z" fill="#59114D"/>
<path d="M318.545 60.3781C312.848 63.6732 303.613 63.6732 297.916 60.3781C292.219 57.083 292.219 51.7589 297.916 48.4725C303.613 45.186 312.848 45.1774 318.545 48.4725C324.242 51.7675 324.242 57.0917 318.545 60.3781Z" fill="#59114D"/>
<g opacity="0.6">
<path d="M318.545 60.3781C312.848 63.6732 303.613 63.6732 297.916 60.3781C292.219 57.083 292.219 51.7589 297.916 48.4725C303.613 45.186 312.848 45.1774 318.545 48.4725C324.242 51.7675 324.242 57.0917 318.545 60.3781Z" fill="white"/>
</g>
<path d="M308.235 61.1589C311.529 61.2344 314.787 60.461 317.695 58.913C319.906 57.6383 321.164 56.0428 321.164 54.4299C321.164 52.8171 319.941 51.2129 317.695 49.9382C314.759 48.4612 311.518 47.6919 308.231 47.6919C304.944 47.6919 301.702 48.4612 298.766 49.9382C296.555 51.2129 295.297 52.8084 295.297 54.4299C295.297 56.0515 296.52 57.6383 298.766 58.913C301.677 60.4621 304.938 61.2355 308.235 61.1589V61.1589Z" fill="#59114D"/>
<path d="M169.052 372.709L171.055 344.016L184.955 335.995L177.004 368.122L169.052 372.709Z" fill="#B16668"/>
<path d="M169.052 372.709L161.109 368.122L161.257 338.362L171.055 344.016L169.052 372.709Z" fill="#9A4A4D"/>
<path d="M71.665 316.493L73.6681 287.8L87.5595 279.779L79.6166 311.906L71.665 316.493Z" fill="#B16668"/>
<path d="M71.6652 316.493L63.7136 311.906L63.8697 282.146L73.6683 287.8L71.6652 316.493Z" fill="#9A4A4D"/>
<path d="M303.336 295.188L301.333 268.81L287.433 276.831L295.384 299.784L303.336 295.188Z" fill="#B16668"/>
<path d="M295.384 299.784L287.433 295.188L277.634 271.177L287.433 276.84L295.384 299.784Z" fill="#9A4A4D"/>
<path d="M169.052 342.863L304.628 264.596V273.779L169.052 352.037V342.863Z" fill="#B16668"/>
<path d="M57.7563 287.783L169.052 352.037V342.863L57.7563 278.608V287.783Z" fill="#9A4A4D"/>
<path d="M169.052 342.863L304.628 264.596L193.332 200.342L57.7563 278.609L169.052 342.863Z" fill="#9A4A4D"/>
<path d="M304.775 208.085V256.575C304.775 261.509 301.307 267.579 296.971 270.033L294.725 271.342L294.612 271.394C291.606 272.873 288.237 273.454 284.909 273.068L186.924 325.165C186.707 329.977 183.351 335.666 179.241 338.085H179.172L176.934 339.386C176.746 339.507 176.545 339.609 176.336 339.689C176.234 339.753 176.126 339.808 176.015 339.854C176.015 339.854 175.946 339.854 175.929 339.854C172.097 341.446 167.828 341.643 163.867 340.409C163.408 340.271 162.959 340.103 162.523 339.906L162.306 339.819C161.985 339.672 161.682 339.516 161.387 339.351L60.2883 281.054C56.0047 278.574 52.4841 272.53 52.4841 267.596V162.552C52.4841 157.618 55.9526 151.566 60.2883 149.094L180.36 79.724C184.695 77.244 191.632 77.244 195.907 79.724L202.237 83.3659C206.512 85.8459 210.553 91.8551 211.195 96.7544L217.265 148.609L296.988 194.645C301.272 197.081 304.775 203.151 304.775 208.085Z" fill="#37474F"/>
<path d="M202.22 83.3573L195.899 79.7067C191.563 77.2267 184.626 77.2267 180.351 79.7067L60.2799 149.077C59.829 149.337 59.3348 149.684 59.4822 149.58C55.7398 152.401 53.2649 156.587 52.5972 161.225C53.1695 157.254 56.3952 155.823 60.2713 158.052L66.61 161.702C70.9456 164.182 77.8826 164.182 82.1576 161.702L202.22 92.3321C206.512 89.8521 206.512 85.8373 202.22 83.3573Z" fill="#455A64"/>
<path d="M304.775 208.085V256.575C304.775 261.509 301.307 267.578 296.971 270.032L294.725 271.342L294.612 271.394C291.808 272.83 288.652 273.431 285.516 273.128C283.299 273.003 281.136 272.396 279.177 271.35L207.206 229.798C202.931 227.344 199.402 221.274 199.402 216.34V167.841C199.402 162.907 202.87 156.837 207.206 154.383L217.204 148.591L296.928 194.627C301.272 197.081 304.775 203.151 304.775 208.085Z" fill="#012622"/>
<path d="M217.282 148.591L207.319 154.375C203.044 156.846 203.044 160.887 207.319 163.35L279.29 204.885C283.565 207.356 287.094 213.409 287.094 218.343V266.885C287.094 271.819 290.563 273.822 294.898 271.368L297.136 270.067C301.411 267.604 304.94 261.543 304.94 256.609V208.076C304.94 203.142 301.471 197.081 297.136 194.618L217.282 148.591Z" fill="#455A64"/>
<path d="M286.99 218.326V266.885C286.99 271.819 290.459 273.822 294.795 271.368L297.032 270.067C301.307 267.605 304.836 261.543 304.836 256.609V208.076C304.739 205.372 303.954 202.736 302.555 200.419L284.779 210.695C286.149 213.011 286.91 215.636 286.99 218.326Z" fill="#37474F"/>
<path d="M283.756 273.12C283.009 274.666 282.055 276.104 280.921 277.395C279.264 279.242 275.718 281.271 273.602 282.511C246.27 298.301 223.664 311.395 196.323 327.176C195.115 327.794 193.778 328.116 192.421 328.116C191.065 328.116 189.727 327.794 188.519 327.176L163.286 312.583L112.724 283.404C108.44 280.924 104.919 275.149 104.919 270.501C104.919 265.853 108.388 260.095 112.724 257.589L141.417 241.027L163.295 228.41L189.976 212.958C192.387 211.744 195.05 211.111 197.75 211.111C200.45 211.111 203.112 211.744 205.524 212.958L277.452 254.502C281.788 256.982 285.256 258.899 285.256 264.596C285.187 266.408 284.649 271.221 283.756 273.12Z" fill="#012622"/>
<path d="M196.332 310.345L281.311 261.222C283.461 259.991 285.195 260.988 285.195 263.468V271.333C285.123 272.681 284.734 273.994 284.059 275.163C283.384 276.332 282.442 277.326 281.311 278.062L196.332 327.176C194.182 328.416 192.439 327.41 192.447 324.939V317.074C192.522 315.727 192.913 314.416 193.588 313.247C194.262 312.078 195.202 311.084 196.332 310.345V310.345Z" fill="#37474F"/>
<path d="M189.057 185.513L112.749 229.633C108.457 232.113 104.945 238.139 104.945 243.091V248.293C104.945 253.253 108.414 259.28 112.749 261.751L184.721 303.287C189.057 305.767 195.994 305.767 200.269 303.287L276.576 259.167C280.868 256.696 284.38 250.669 284.38 245.709V240.507C284.38 235.547 280.912 229.52 276.576 227.049L204.604 185.513C200.303 183.033 193.349 183.033 189.057 185.513Z" fill="#37474F"/>
<path d="M192.447 281.99V305.177C189.729 305.237 187.041 304.595 184.643 303.313L112.672 261.786C108.388 259.306 104.867 253.28 104.867 248.32V243.117C104.867 238.469 107.937 232.885 111.848 230.153C108.379 232.651 108.639 236.31 112.637 238.625L184.609 280.161C187.022 281.43 189.721 282.06 192.447 281.99V281.99Z" fill="#012622"/>
<path d="M200.217 280.143L276.524 236.024C280.816 233.544 280.816 229.52 276.524 227.049L204.552 185.513C200.217 183.033 193.28 183.033 189.013 185.513L112.706 229.633C108.414 232.113 108.414 236.128 112.706 238.608L184.678 280.143C188.961 282.614 195.924 282.614 200.217 280.143Z" fill="#455A64"/>
<path d="M148.657 144.845C143.68 144.351 139.561 150.048 131.263 154.141C115.81 161.702 108.847 168.579 101.65 176.972C94.4531 185.366 91.7303 183.909 89.5104 189.164C87.2906 194.419 93.3865 196.639 96.2914 204.053C101.173 216.557 107.243 224.951 113.573 230.162C124.733 239.362 123.025 245.77 128.106 245.701C133.517 245.64 133.127 241.001 141.625 237.697C161.742 229.893 169.997 222.956 179.293 209.169C182.926 203.793 187.548 204.244 188.432 199.058C188.866 196.457 185.094 195.069 181.686 186.918C176.033 173.391 166.997 160.696 158.196 154.106C154.372 151.236 153.721 145.348 148.657 144.845Z" fill="#59114D"/>
<path opacity="0.3" d="M148.657 144.845C143.68 144.351 139.561 150.048 131.263 154.141C115.81 161.702 108.847 168.579 101.65 176.972C94.4531 185.366 91.7303 183.909 89.5104 189.164C87.2906 194.419 93.3865 196.639 96.2914 204.053C101.173 216.557 107.243 224.951 113.573 230.162C124.733 239.362 123.025 245.77 128.106 245.701C133.517 245.64 133.127 241.001 141.625 237.697C161.742 229.893 169.997 222.956 179.293 209.169C182.926 203.793 187.548 204.244 188.432 199.058C188.866 196.457 185.094 195.069 181.686 186.918C176.033 173.391 166.997 160.696 158.196 154.106C154.372 151.236 153.721 145.348 148.657 144.845Z" fill="black"/>
<path opacity="0.2" d="M95.0079 197.879C99.2569 203.949 98.6932 209.914 107.434 220.988C115.828 231.619 121.906 234.602 124.421 239.379C126.511 243.342 129.364 245.198 130.049 240.559C130.734 235.92 127.083 222.661 118.62 211.302C108.882 198.234 102.665 193.231 98.4591 191.358C91.8689 188.306 91.6608 193.179 95.0079 197.879Z" fill="black"/>
<path opacity="0.2" d="M141.989 232.581C136.439 234.498 136.197 239.423 133.413 243.221C135.703 240.777 138.52 238.888 141.651 237.697C150.816 234.133 157.519 230.76 162.973 226.823C155.872 230.569 146.021 231.194 141.989 232.581ZM176.744 207.053C173.275 210.227 173.639 215.863 169.503 221.3C173.173 217.592 176.461 213.525 179.319 209.16C182.64 204.252 186.776 204.191 188.138 200.272C185.094 204.131 180.88 203.264 176.744 207.053Z" fill="black"/>
<path opacity="0.3" d="M141.738 156.82C129.893 159.04 118.048 165.145 109.897 174.258C108.296 176.172 107.517 178.64 107.729 181.126C107.83 182.678 108.322 184.18 109.159 185.491C109.996 186.802 111.15 187.881 112.515 188.627C115.299 190.196 119.374 190.205 122.279 189.832C128.41 189.043 132.026 187.439 139.951 187.317C142.867 187.343 145.734 188.069 148.31 189.433C152.221 191.61 155.143 194.064 158.569 195.902C163.286 198.425 171.662 197.272 174.567 194.358C177.671 191.254 178.374 186.554 175.59 180.727C169.416 167.72 157.892 155.025 141.738 156.82Z" fill="#59114D"/>
<path d="M169.165 334.937V286.438C169.165 281.505 165.697 275.443 161.361 272.981L81.6718 226.997L75.6019 175.151C74.9515 170.252 70.9194 164.234 66.6444 161.763L60.3144 158.112C56.0481 155.641 52.5103 157.661 52.5103 162.595V267.596C52.5103 272.53 55.9788 278.582 60.3144 281.054L161.361 339.429C165.697 341.891 169.165 339.871 169.165 334.937Z" fill="#012622"/>
<path d="M186.941 276.155V324.662C186.95 324.829 186.95 324.997 186.941 325.165C186.724 329.977 183.368 335.666 179.258 338.085H179.189L176.952 339.386C176.763 339.507 176.563 339.609 176.353 339.689C176.251 339.753 176.144 339.808 176.033 339.854C176.033 339.854 175.963 339.854 175.946 339.854C175.74 339.944 175.528 340.022 175.313 340.088C171.638 341.429 167.628 341.542 163.884 340.409C163.425 340.271 162.976 340.103 162.54 339.906C166.269 341.449 169.165 339.351 169.182 334.885V286.439C169.182 281.505 165.714 275.444 161.378 272.981L147.279 264.83L81.6716 226.997L91.6956 221.196C95.9619 218.742 102.968 218.742 107.235 221.196L165.081 254.598L179.172 262.731C183.455 265.151 186.941 271.221 186.941 276.155Z" fill="#455A64"/>
<path d="M169.165 286.439V334.954C169.165 339.42 166.251 341.519 162.523 339.975C162.959 340.172 163.408 340.34 163.867 340.478C167.611 341.611 171.621 341.498 175.296 340.157C175.511 340.092 175.722 340.013 175.929 339.923C175.929 339.923 175.981 339.923 176.015 339.923C176.126 339.877 176.234 339.822 176.336 339.758C176.545 339.678 176.746 339.576 176.934 339.455L179.172 338.154H179.241C183.351 335.735 186.707 330.046 186.924 325.234C186.932 325.066 186.932 324.898 186.924 324.731V276.154C186.831 273.452 186.045 270.819 184.643 268.506L166.858 278.782C168.267 281.096 169.061 283.731 169.165 286.439V286.439Z" fill="#37474F"/>
<g opacity="0.2">
<path d="M81.6715 226.997C84.1428 225.514 89.4757 222.297 91.895 220.927C94.3073 219.721 96.9684 219.097 99.6653 219.105C102.362 219.112 105.02 219.751 107.425 220.97C122.869 229.728 150.496 245.701 165.835 254.667L179.518 262.714C181.725 264.225 183.547 266.233 184.836 268.576C186.125 270.92 186.846 273.533 186.941 276.206C186.768 273.577 185.989 271.023 184.663 268.745C183.338 266.467 181.503 264.527 179.302 263.078L165.506 255.274C150.036 246.455 122.444 230.535 107.122 221.525C104.802 220.319 102.234 219.666 99.6199 219.616C97.0056 219.566 94.4152 220.122 92.051 221.239C89.6144 222.557 84.1428 225.679 81.6455 227.04L81.6715 226.997Z" fill="white"/>
</g>
<path d="M233.081 266.885L246.955 249.169L268.078 265.055C253.796 274.533 238.067 286.378 234.182 290.982C234.182 290.982 222.138 285.719 221.426 278.921C220.715 272.122 229.283 268.342 233.081 266.885Z" fill="#C8856A"/>
<path d="M217.403 271.819C216.116 272.411 214.963 273.257 214.013 274.308C212.963 275.357 212.07 281.245 210.77 283.777C209.469 286.309 208.723 286.933 206.763 290.072C204.596 293.54 201.266 296.454 202.358 306.695C203.451 316.936 207.344 322.476 210.926 325.624C212.277 326.703 213.868 327.44 215.565 327.775C215.565 327.775 221.262 326.812 221.062 323.517C220.863 320.222 217.403 271.819 217.403 271.819Z" fill="#012622"/>
<path d="M238.535 286.985C238.188 287.948 236.497 289.205 235.778 289.907C233.341 292.266 231.737 295.778 230.445 298.882C224.314 313.537 228.858 322.494 219.51 326.63C216.831 327.662 211.975 326.283 206.356 315.175C203.486 309.504 203.286 298.96 205.688 294.677C208.09 290.393 210.718 287.809 212.374 284.479C214.03 281.149 214.828 274.481 217.369 271.845C218.965 270.384 220.871 269.302 222.944 268.68C224.574 268.082 227.991 267.535 229.647 266.946C231.303 266.356 232.309 265.593 233.046 266.859L230.948 268.619C227.54 271.802 228.182 272.495 227.861 274.481C227.54 276.467 226.404 278.6 225.624 280.551C228 278.522 229.196 276.571 231.199 277.351C233.202 278.132 233.48 278.08 235.908 281.462C238.336 284.843 238.873 286.127 238.535 286.985Z" fill="#59114D"/>
<path opacity="0.4" d="M238.535 286.985C238.188 287.948 236.497 289.205 235.778 289.907C233.341 292.266 231.737 295.778 230.445 298.882C224.314 313.537 228.858 322.494 219.51 326.63C216.831 327.662 211.975 326.283 206.356 315.175C203.486 309.504 203.286 298.96 205.688 294.677C208.09 290.393 210.718 287.809 212.374 284.479C214.03 281.149 214.828 274.481 217.369 271.845C218.965 270.384 220.871 269.302 222.944 268.68C224.574 268.082 227.991 267.535 229.647 266.946C231.303 266.356 232.309 265.593 233.046 266.859L230.948 268.619C227.54 271.802 228.182 272.495 227.861 274.481C227.54 276.467 226.404 278.6 225.624 280.551C228 278.522 229.196 276.571 231.199 277.351C233.202 278.132 233.48 278.08 235.908 281.462C238.336 284.843 238.873 286.127 238.535 286.985Z" fill="black"/>
<path opacity="0.3" d="M206.391 315.149C203.52 309.478 203.321 298.934 205.723 294.65C206.511 293.238 207.38 291.871 208.324 290.557C208.194 290.852 208.038 291.156 207.952 291.425C207.735 292.005 207.544 292.578 207.371 293.159C206.561 295.428 206.352 297.869 206.764 300.243C207.258 302.316 208.307 307.484 210.856 308.091C212.304 308.438 213.813 307.224 214.689 305.741C215.062 305.099 215.816 303.322 215.816 303.322C218.067 304.334 220.142 305.698 221.964 307.362C225.207 310.562 224.965 311.082 224.965 311.082C224.531 312.116 224.273 313.215 224.202 314.334C224.182 315.552 224.437 316.758 224.947 317.863C225.173 318.21 225.441 318.527 225.745 318.808C224.878 322.277 223.43 324.878 219.51 326.613C216.857 327.636 212.01 326.257 206.391 315.149Z" fill="black"/>
<path d="M230.479 298.882C228.884 302.739 227.758 306.774 227.124 310.9C224.947 314.533 223.742 314.178 223.976 312.114C224.21 310.05 228.554 302.177 231.936 295.639C231.398 296.714 230.922 297.824 230.479 298.882Z" fill="#37474F"/>
<path d="M226.005 272.556C226.228 270.543 227.148 268.672 228.607 267.266C229.005 267.162 229.387 267.058 229.69 266.963C231.477 266.365 232.353 265.61 233.09 266.876L230.948 268.619C227.54 271.802 228.182 272.495 227.861 274.481C227.54 276.467 226.404 278.6 225.624 280.551C222.762 286.872 220.906 288.815 218.938 294.928C216.97 301.041 217.395 305.507 216.441 305.689C215.487 305.871 213.839 304.822 214.507 299.723C215.175 294.624 219.042 286.638 221.392 282.944C223.742 279.25 225.797 275.296 226.005 272.556Z" fill="#37474F"/>
<path d="M215.322 303.66C215.391 303.767 215.491 303.851 215.608 303.903C219.831 305.637 221.955 307.241 224.47 311.707C224.555 311.851 224.693 311.957 224.855 312.002C225.016 312.048 225.189 312.029 225.337 311.949C225.483 311.866 225.591 311.728 225.636 311.566C225.682 311.403 225.662 311.23 225.58 311.082C222.918 306.33 220.585 304.57 216.102 302.689C216.023 302.65 215.937 302.629 215.849 302.626C215.761 302.623 215.674 302.638 215.592 302.671C215.511 302.704 215.437 302.753 215.375 302.816C215.314 302.878 215.266 302.953 215.235 303.035C215.192 303.138 215.177 303.25 215.193 303.359C215.208 303.469 215.253 303.573 215.322 303.66V303.66Z" fill="#EBEBEB"/>
<path d="M217.143 298.596C217.212 298.698 217.308 298.779 217.421 298.83C221.756 300.781 224.037 302.567 226.707 307.31C226.79 307.458 226.927 307.567 227.089 307.614C227.252 307.662 227.426 307.643 227.575 307.562C227.717 307.475 227.823 307.338 227.869 307.177C227.916 307.017 227.9 306.845 227.826 306.695C224.999 301.7 222.537 299.758 217.932 297.668C217.773 297.598 217.593 297.593 217.431 297.654C217.268 297.716 217.137 297.839 217.065 297.997C217.028 298.096 217.016 298.202 217.029 298.306C217.043 298.411 217.082 298.51 217.143 298.596V298.596Z" fill="#EBEBEB"/>
<path d="M218.166 292.821C218.239 292.936 218.345 293.026 218.47 293.081C223.256 295.231 225.901 297.364 228.875 302.619C228.972 302.785 229.129 302.906 229.313 302.958C229.498 303.01 229.695 302.988 229.864 302.897C229.946 302.851 230.019 302.789 230.078 302.714C230.136 302.64 230.179 302.554 230.204 302.463C230.229 302.372 230.236 302.277 230.223 302.183C230.211 302.089 230.18 301.998 230.133 301.917C227.028 296.419 224.167 294.069 219.094 291.789C218.953 291.734 218.797 291.725 218.651 291.764C218.504 291.802 218.373 291.886 218.277 292.003C218.181 292.121 218.124 292.265 218.115 292.417C218.106 292.568 218.145 292.719 218.227 292.847L218.166 292.821Z" fill="#EBEBEB"/>
<path d="M219.97 288.069C220.042 288.181 220.144 288.271 220.265 288.329C224.965 290.428 227.514 292.483 230.41 297.625C230.506 297.784 230.659 297.9 230.838 297.95C231.017 298 231.208 297.98 231.373 297.893C231.454 297.848 231.525 297.788 231.583 297.715C231.641 297.642 231.683 297.558 231.708 297.468C231.733 297.379 231.74 297.285 231.729 297.193C231.717 297.101 231.688 297.012 231.641 296.931C228.607 291.537 225.823 289.266 220.846 287.037C220.674 286.961 220.48 286.955 220.304 287.022C220.129 287.088 219.987 287.222 219.909 287.393C219.861 287.501 219.841 287.62 219.851 287.739C219.862 287.857 219.903 287.971 219.97 288.069Z" fill="#EBEBEB"/>
<path d="M222.71 283.638C222.783 283.753 222.889 283.843 223.014 283.898C227.705 286.005 230.254 288.051 233.159 293.194C233.253 293.354 233.406 293.472 233.586 293.522C233.766 293.572 233.958 293.551 234.122 293.462C234.284 293.37 234.403 293.216 234.454 293.036C234.504 292.856 234.481 292.663 234.39 292.5C231.338 287.106 228.563 284.843 223.586 282.606C223.502 282.568 223.411 282.548 223.319 282.545C223.226 282.543 223.134 282.558 223.048 282.591C222.962 282.624 222.883 282.674 222.816 282.738C222.749 282.801 222.696 282.877 222.658 282.961C222.608 283.069 222.587 283.188 222.596 283.306C222.605 283.425 222.644 283.539 222.71 283.638Z" fill="#EBEBEB"/>
<path d="M217.889 184.837C218.158 188.809 240.894 195.459 258.349 200.393C278.388 206.064 287.987 210.305 295.549 217.406C299.815 221.421 302.373 226.589 301.376 233.353C300.648 238.278 296.702 246.36 287.649 254.025C270.489 268.619 262.043 272.088 249.886 280.594C249.886 280.594 236.879 272.617 234.538 262.931L251.611 242.9L200.208 229.598L217.889 184.837Z" fill="#59114D"/>
<path opacity="0.4" d="M217.889 184.837C218.158 188.809 240.894 195.459 258.349 200.393C278.388 206.064 287.987 210.305 295.549 217.406C299.815 221.421 302.373 226.589 301.376 233.353C300.648 238.278 296.702 246.36 287.649 254.025C270.489 268.619 262.043 272.088 249.886 280.594C249.886 280.594 236.879 272.617 234.538 262.931L251.611 242.9L200.208 229.598L217.889 184.837Z" fill="white"/>
<path opacity="0.5" d="M259.58 262.003C260.647 265.558 262.407 271.931 262.424 272.408C259.311 274.368 253.311 278.175 249.886 280.559C249.886 280.559 236.879 272.582 234.538 262.896L249.496 245.354C254.915 250.409 256.745 252.621 259.58 262.003Z" fill="#59114D"/>
<path opacity="0.5" d="M256.45 232.026C252.175 236.05 250.441 235.824 241.709 234.134L238.327 233.466L219.814 218.725C221.86 211.926 222.632 206.585 220.351 200.914L211.984 194.124L200.208 229.598L206.503 231.237L251.594 242.926C257.803 234.879 264.445 227.318 270.905 226.329C266.621 225.454 262.39 226.433 256.45 232.026Z" fill="#59114D"/>
<path d="M259.676 345.369L244.501 319.415L269.648 303.625C275.579 319.927 280.175 339.273 284.831 345.872C284.831 345.872 277.833 357.821 270.211 356.797C262.589 355.774 260.291 349.817 259.676 345.369Z" fill="#C8856A"/>
<path d="M261.419 359.208C261.744 360.746 262.375 362.202 263.274 363.492C264.141 364.888 270.341 367.394 272.813 369.457C275.284 371.521 275.735 372.475 278.657 375.397C281.892 378.64 284.216 382.959 295.696 384.493C307.333 386.054 314.253 383.34 318.623 380.34C320.143 379.185 321.358 377.676 322.161 375.944C322.161 375.944 322.586 369.605 318.935 368.946C315.285 368.287 261.419 359.208 261.419 359.208Z" fill="#012622"/>
<path d="M283.478 340.591C284.441 341.206 285.377 343.348 285.958 344.311C287.909 347.536 291.343 350.172 294.395 352.375C308.85 362.781 319.82 360.309 321.901 371.391C322.343 374.521 319.568 379.351 305.971 382.421C299.034 383.99 287.45 381.415 283.426 377.721C279.403 374.027 277.218 370.533 274 367.879C270.783 365.226 263.699 362.624 261.462 359.208C260.152 357.205 259.728 354.734 259.441 352.418C259.207 350.511 258.791 344.059 258.791 344.059C261.392 348.542 265.026 347.875 267.115 348.75C269.205 349.626 271.243 351.352 273.185 352.748C271.581 349.661 269.76 347.875 271.13 345.932C272.5 343.99 272.509 343.695 276.845 341.987C281.18 340.279 282.62 340.036 283.478 340.591Z" fill="#59114D"/>
<path opacity="0.4" d="M283.478 340.591C284.441 341.206 285.377 343.348 285.958 344.311C287.909 347.536 291.343 350.172 294.395 352.375C308.85 362.781 319.82 360.309 321.901 371.391C322.343 374.521 319.568 379.351 305.971 382.421C299.034 383.99 287.45 381.415 283.426 377.721C279.403 374.027 277.218 370.533 274 367.879C270.783 365.226 263.699 362.624 261.462 359.208C260.152 357.205 259.728 354.734 259.441 352.418C259.207 350.511 258.791 344.059 258.791 344.059C261.392 348.542 265.026 347.875 267.115 348.75C269.205 349.626 271.243 351.352 273.185 352.748C271.581 349.661 269.76 347.875 271.13 345.932C272.5 343.99 272.509 343.695 276.845 341.987C281.18 340.279 282.62 340.036 283.478 340.591Z" fill="black"/>
<path opacity="0.3" d="M305.972 382.421C299.035 383.991 287.45 381.415 283.426 377.721C282.087 376.497 280.819 375.197 279.628 373.828C279.923 374.036 280.209 374.288 280.496 374.452C281.068 374.825 281.657 375.189 282.23 375.528C284.519 376.846 287.129 378.016 289.826 378.042C292.219 378.042 298.142 378.311 299.468 375.744C300.223 374.288 299.321 372.363 297.881 371.027C297.283 370.455 295.532 369.18 295.532 369.18C297.225 367.036 299.255 365.179 301.541 363.683C305.876 361.081 306.379 361.454 306.379 361.454C307.369 362.186 308.47 362.754 309.64 363.136C310.968 363.467 312.351 363.511 313.698 363.266C314.133 363.116 314.549 362.915 314.938 362.668C318.545 364.489 321.008 366.744 321.875 371.391C322.334 374.522 319.568 379.352 305.972 382.421Z" fill="black"/>
<path d="M294.396 352.375C298.212 355.103 302.336 357.373 306.683 359.138C310.091 362.425 309.388 363.622 307.194 362.824C305 362.026 297.5 355.332 291.213 349.956C292.297 350.823 293.355 351.629 294.396 352.375Z" fill="#37474F"/>
<path d="M264.453 350.216C262.355 349.54 260.664 349.271 259.069 347.857C258.045 346.99 258.011 344.25 258.349 343.097L259.771 345.508C262.65 347.675 264.974 347.875 267.072 348.751C269.171 349.626 271.2 351.352 273.142 352.748C279.325 357.474 280.946 359.971 287.146 363.691C293.346 367.411 298.367 368.131 298.289 369.206C298.211 370.281 296.65 371.756 291.265 369.7C285.88 367.645 278.119 361.402 274.694 357.933C271.269 354.465 267.393 351.161 264.453 350.216Z" fill="#37474F"/>
<path d="M295.713 369.839C295.849 369.796 295.968 369.711 296.052 369.596C299.078 365.555 301.341 363.7 306.908 362.2C307.088 362.149 307.24 362.03 307.333 361.867C307.425 361.705 307.45 361.513 307.402 361.332C307.348 361.156 307.228 361.006 307.066 360.916C306.905 360.826 306.714 360.801 306.535 360.847C300.647 362.434 298.133 364.463 294.907 368.764C294.821 368.888 294.776 369.035 294.78 369.186C294.783 369.337 294.835 369.482 294.926 369.602C295.018 369.722 295.145 369.809 295.29 369.852C295.435 369.894 295.589 369.89 295.731 369.839H295.713Z" fill="#EBEBEB"/>
<path d="M290.641 366.553C290.773 366.508 290.89 366.427 290.979 366.318C294.231 362.2 296.763 360.248 302.651 358.636C302.741 358.613 302.826 358.572 302.9 358.515C302.974 358.459 303.036 358.388 303.082 358.307C303.128 358.226 303.157 358.137 303.168 358.044C303.179 357.952 303.171 357.858 303.145 357.768C303.09 357.591 302.97 357.441 302.809 357.35C302.648 357.258 302.458 357.231 302.278 357.274C296.078 359.008 293.294 361.09 289.843 365.46C289.741 365.588 289.686 365.746 289.685 365.909C289.684 366.072 289.737 366.231 289.837 366.36C289.937 366.489 290.078 366.58 290.236 366.62C290.394 366.66 290.561 366.645 290.71 366.579L290.641 366.553Z" fill="#EBEBEB"/>
<path d="M284.588 363.943C284.733 363.889 284.861 363.799 284.961 363.682C288.542 359.13 291.56 356.875 298.038 355.106C298.139 355.08 298.235 355.034 298.319 354.97C298.402 354.906 298.472 354.826 298.524 354.735C298.576 354.643 298.608 354.542 298.62 354.438C298.632 354.333 298.623 354.227 298.593 354.127C298.521 353.927 298.38 353.761 298.195 353.659C298.009 353.556 297.793 353.526 297.587 353.572C290.771 355.445 287.476 357.907 283.669 362.703C283.606 362.786 283.56 362.881 283.533 362.983C283.507 363.085 283.501 363.19 283.515 363.294C283.53 363.398 283.565 363.498 283.618 363.589C283.671 363.679 283.742 363.758 283.825 363.821C283.934 363.899 284.06 363.95 284.193 363.972C284.325 363.993 284.46 363.983 284.588 363.943V363.943Z" fill="#EBEBEB"/>
<path d="M279.862 360.76C280.004 360.715 280.128 360.627 280.218 360.509C283.73 356.043 286.643 353.858 293.008 352.115C293.205 352.058 293.372 351.927 293.472 351.748C293.573 351.57 293.599 351.359 293.546 351.161C293.485 350.961 293.349 350.792 293.166 350.69C292.984 350.588 292.768 350.561 292.566 350.615C285.88 352.445 282.681 354.82 278.961 359.546C278.898 359.627 278.851 359.72 278.825 359.819C278.798 359.918 278.791 360.022 278.805 360.124C278.819 360.225 278.852 360.323 278.904 360.412C278.957 360.5 279.026 360.577 279.108 360.639C279.214 360.721 279.338 360.775 279.47 360.796C279.602 360.817 279.737 360.805 279.862 360.76Z" fill="#EBEBEB"/>
<path d="M275.726 356.659C275.865 356.604 275.988 356.514 276.082 356.399C279.602 351.941 282.498 349.756 288.872 348.013C289.071 347.957 289.239 347.824 289.34 347.643C289.441 347.463 289.466 347.25 289.41 347.051C289.347 346.852 289.21 346.685 289.028 346.585C288.845 346.485 288.631 346.459 288.43 346.513C281.735 348.343 278.544 350.719 274.816 355.445C274.691 355.609 274.636 355.817 274.664 356.021C274.691 356.226 274.799 356.412 274.963 356.537C275.07 356.619 275.196 356.673 275.329 356.694C275.463 356.715 275.599 356.703 275.726 356.659V356.659Z" fill="#EBEBEB"/>
<path d="M218.045 185.071C194.823 187.473 170.292 190.95 147.14 193.257C146.541 204.451 144.85 213.756 148.449 225.21C151.735 235.703 161.413 244.287 171.055 250.262C182.492 257.346 205.072 266.017 214.091 270.787C227.098 277.68 222.935 280.325 227.271 292.37C230.054 300.061 234.113 306.79 242.012 318.739C246.946 326.205 249.053 329.604 253.701 336.029C262.069 338.969 272.544 333.74 277.877 326.89C271.234 306.261 264.28 284.86 258.071 264.457C254.603 253.08 251.689 249.108 241.596 240.888C233.705 234.437 224.496 227.647 214.099 220.034C225.06 203.948 218.322 193.751 218.045 185.071Z" fill="#59114D"/>
<path opacity="0.4" d="M218.045 185.071C194.823 187.473 170.292 190.95 147.14 193.257C146.541 204.451 144.85 213.756 148.449 225.21C151.735 235.703 161.413 244.287 171.055 250.262C182.492 257.346 205.072 266.017 214.091 270.787C227.098 277.68 222.935 280.325 227.271 292.37C230.054 300.061 234.113 306.79 242.012 318.739C246.946 326.205 249.053 329.604 253.701 336.029C262.069 338.969 272.544 333.74 277.877 326.89C271.234 306.261 264.28 284.86 258.071 264.457C254.603 253.08 251.689 249.108 241.596 240.888C233.705 234.437 224.496 227.647 214.099 220.034C225.06 203.948 218.322 193.751 218.045 185.071Z" fill="white"/>
<path d="M276.056 320.326C270.957 328.694 259.199 331.772 250.042 331.209C251.525 333.81 253.354 336.125 254.829 338.709C264.532 340.513 272.492 336.429 278.423 328.815C277.677 325.971 276.88 323.144 276.056 320.326Z" fill="#59114D"/>
<path d="M186.083 101.749C200.217 100.674 206.026 101.671 218.877 122.126C227.895 136.512 247.493 162.43 247.493 162.43L227.644 179.704C218.652 166.445 208.888 157.262 194.468 137.934L186.083 101.749Z" fill="#E0E0E0"/>
<path d="M209.304 129.809C205.394 108.192 197.277 101.541 186.083 101.749C185.874 101.749 170.752 104.35 162.011 106.293C157.875 107.22 142.449 114.019 138.087 116.698C132.511 120.089 129.953 130.511 131.228 145.955C132.559 160.829 134.853 175.601 138.096 190.179C140.749 202.631 141.217 208.302 146.524 224.196C162.332 227.951 224.106 207.565 221.904 188.124C219.927 183.788 216.701 178.897 214.672 169.975C211.654 154.245 210.527 136.599 209.304 129.809Z" fill="#FAFAFA"/>
<path d="M154.562 97.8553C153.747 91.6986 147.885 85.0911 145.336 79.6456C142.873 74.4428 141.868 70.376 141.92 65.5287C142.067 47.9433 158.031 38.2402 173.24 39.9658C200.832 43.0961 198.222 63.3175 197.52 67.0028C197.173 68.8411 194.919 71.8327 193.809 73.3676C192.699 74.9024 190.973 74.9024 189.143 74.7116C187.314 74.5208 185.528 75.2145 183.681 75.5787C181.547 75.9689 179.345 76.2638 177.246 76.6279L171.428 77.6165C171.09 77.6772 169.347 77.7205 169.13 78.0067L154.562 97.8553Z" fill="#012622"/>
<path d="M146.854 86.8255C151.068 89.5483 154.077 86.8776 154.077 86.8776L153.617 109.935C156.661 118.693 169.65 119.143 175.105 116.872C180.559 114.6 180.039 111.105 178.408 107.992L178.903 104.706C181.333 104.834 183.768 104.814 186.195 104.645C191.016 104.159 194.762 100.405 196.323 95.254C197.954 89.8778 198.604 81.2326 197.659 74.6771C197.405 72.9532 197.388 71.2029 197.607 69.4743C198.656 61.2973 193.21 52.9988 185.996 49.5303C183.75 49.4176 185.996 51.3513 186.161 53.3804C186.291 54.8458 184.556 55.869 183.1 56.0945C181.209 56.2454 179.311 55.9236 177.576 55.158C173.457 53.6839 169.243 51.9149 164.881 52.2531C163.962 52.3225 162.817 52.7561 162.826 53.6752C162.86 53.9848 162.967 54.2819 163.138 54.5423C163.893 55.9297 164.821 57.2738 165.497 58.6872C166.563 60.8897 167.613 64.4623 166.832 66.9163C166.327 68.3429 165.516 69.642 164.456 70.723C164.144 71.0698 160.771 73.4197 160.771 73.4111C160.936 75.2494 160.997 79.8885 157.988 79.6891C155.828 79.5503 155.204 73.9747 153.062 71.5034C150.92 69.0321 145.761 68.1996 143.619 71.6508C140.628 76.498 142.284 83.8426 146.854 86.8255Z" fill="#C8856A"/>
<path d="M178.903 104.732C171.324 103.553 165.566 102.521 161.803 96.8586C160.057 93.9566 158.63 90.8749 157.545 87.667C157.545 87.667 158.074 94.4393 160.398 99.0957C162.184 102.686 166.598 105.963 178.495 107.42L178.903 104.732Z" fill="#AF6152"/>
<path d="M184.426 85.2736C177.489 85.0221 176.327 86.8257 169.91 87.6928C161.308 88.8548 160.216 80.0101 160.771 76.0733L154.649 73.9402C156.383 78.059 155.074 85.4123 156.791 92.5227C158.508 99.6332 162.861 102.061 168.766 103.925C174.671 105.79 185.892 106.683 191.979 103.275C199.107 99.295 197.901 86.1233 197.901 86.1233C193.349 87.979 191.381 85.5337 184.426 85.2736Z" fill="#012622"/>
<path d="M183.039 89.1238C179.145 88.8637 176.544 89.991 175.616 92.6791C174.688 95.3672 175.035 97.2488 176.336 97.4743C177.637 97.6997 180.732 97.4743 180.958 96.1476C181.183 94.8209 179.223 93.3641 182.25 93.6503C185.276 93.9364 183.178 95.4539 183.117 96.5465C183.056 97.639 184.548 98.4455 188.016 97.9599C189.915 97.6911 189.516 95.0203 189.247 93.3121C188.979 91.6038 186.993 89.3406 183.039 89.1238Z" fill="#C8856A"/>
<path d="M182.987 91.7252C182.756 91.6991 182.524 91.6991 182.293 91.7252H181.677C181.344 91.7006 181.013 91.6455 180.689 91.5604C180.335 91.4633 179.995 91.3235 179.674 91.1442C179.334 90.8806 178.968 90.6512 178.582 90.4592C178.417 90.4158 178.131 90.5199 178.14 90.7193C178.174 90.8997 178.246 91.0705 178.353 91.2202C178.459 91.3698 178.596 91.4948 178.755 91.5865C179.038 91.8035 179.347 91.9841 179.674 92.1241C180.312 92.3862 180.989 92.5387 181.677 92.575C182.047 92.601 182.418 92.601 182.787 92.575C182.996 92.575 183.256 92.575 183.342 92.3149C183.429 92.0547 183.23 91.7252 182.987 91.7252Z" fill="#AF6152"/>
<path d="M167.552 67.9653L152.16 70.6794C153.033 71.2842 153.725 72.1143 154.163 73.0814L167.673 71.3471L167.552 67.9653Z" fill="#37474F"/>
<path d="M201.162 66.4396L200.217 66.3616C197.164 66.1622 193.15 66.2489 190.678 67.116C187.539 68.2173 186.343 69.3358 184.66 69.4226C182.978 69.5093 181.825 68.4774 178.677 67.6883C176.171 67.0466 171.853 67.3414 168.506 67.8444L167.465 68.0091C167.085 68.144 166.753 68.3862 166.508 68.7064C166.263 69.0266 166.117 69.4109 166.086 69.8128C166.1 70.5452 166.349 71.2536 166.797 71.8332C166.928 72.0863 167.005 72.3639 167.023 72.6483C167.188 74.0704 167.023 76.8452 167.535 78.3626C167.748 79.108 168.108 79.8036 168.592 80.4091C168.777 80.6228 168.98 80.8201 169.199 80.9987C169.312 81.093 169.431 81.1799 169.555 81.2589C169.897 81.4859 170.267 81.6667 170.656 81.7965L170.847 81.8572L171.142 81.9439L171.463 82.0133C171.797 82.0782 172.137 82.1187 172.477 82.1347H172.919H173.5C175.081 82.1372 176.631 81.6998 177.977 80.8712C179.324 80.0427 180.413 78.8558 181.122 77.4435C182.414 75.2063 182.466 72.1367 184.418 72.0586H184.6H184.764C186.169 72.3448 185.718 75.1716 186.429 77.1747C186.684 77.9705 187.081 78.7137 187.6 79.3685C187.695 79.4812 187.799 79.594 187.903 79.698L188.068 79.8628L188.233 80.0102C188.284 80.0555 188.339 80.0961 188.398 80.1316L188.562 80.2617L188.701 80.3484L188.797 80.4177C189.307 80.72 189.864 80.9367 190.444 81.0594H190.591C191.274 81.1872 191.971 81.228 192.664 81.1808C194.032 81.1576 195.364 80.7348 196.494 79.9645C197.625 79.1941 198.506 78.1098 199.029 76.8452C199.792 75.2583 200.243 72.5095 200.668 71.0354C200.75 70.7543 200.892 70.4941 201.084 70.2723C201.616 69.6675 201.975 68.9307 202.124 68.1392C202.194 67.2808 201.682 66.4917 201.162 66.4396ZM180.203 75.4144C179.844 76.5837 179.221 77.6547 178.382 78.5448V78.5448C177.742 79.1788 176.982 79.6799 176.148 80.0192C175.313 80.3585 174.419 80.5293 173.518 80.5218C171.194 80.5912 169.962 79.6547 169.303 78.4754C169.303 78.3973 169.225 78.328 169.191 78.2586L169.087 78.0418L169.009 77.8424C168.98 77.7838 168.957 77.7228 168.939 77.6603L168.887 77.5215C168.887 77.5215 168.887 77.4348 168.844 77.3915L168.783 77.1747C168.726 76.9661 168.68 76.7549 168.644 76.5417V76.5417C168.644 76.4116 168.601 76.2815 168.584 76.1601C168.566 76.0387 168.532 75.7352 168.514 75.5445C168.514 75.5445 168.514 75.4664 168.514 75.4318C168.514 75.3971 168.514 75.3537 168.514 75.319C168.384 73.8102 168.384 70.8533 169.191 70.1163C169.997 69.3792 172 68.6421 175.087 68.8156H175.417C175.888 68.8495 176.357 68.9103 176.821 68.9977L177.359 69.1191C177.812 69.2265 178.258 69.3626 178.694 69.5266L179.102 69.6914C179.251 69.7502 179.396 69.8198 179.536 69.8995H179.622L179.787 69.9862C180.132 70.1607 180.43 70.4167 180.654 70.7319C181.148 71.7291 180.741 73.6975 180.203 75.4144V75.4144ZM198.647 73.923C198.309 75.1196 197.581 77.7296 195.265 78.9783C194.519 79.3693 193.696 79.5914 192.855 79.6287C190.323 79.7934 188.996 78.7615 188.311 77.5302C188.311 77.5302 188.259 77.4348 188.242 77.3915C188.209 77.3401 188.182 77.2848 188.164 77.2267C188.146 77.2026 188.131 77.1764 188.12 77.1487C188.12 77.0706 188.051 76.9839 188.025 76.9059C187.985 76.8154 187.95 76.7228 187.921 76.6284C187.921 76.6284 187.921 76.5417 187.877 76.4983V76.4203V76.3076V76.2122C187.786 75.8417 187.722 75.4649 187.687 75.0849C187.522 73.4113 187.539 71.4516 188.224 70.5065C188.909 69.5613 191.303 68.4427 193.548 68.0525C194.025 67.9689 194.505 67.911 194.988 67.8791H196.254H196.635C196.874 67.8958 197.112 67.9276 197.346 67.9745H197.511H197.624H197.789L197.988 68.0352C198.101 68.0675 198.211 68.1081 198.318 68.1565H198.378C198.647 68.2682 198.894 68.4268 199.107 68.6248C199.714 69.4052 199.107 72.3881 198.647 73.923Z" fill="#455A64"/>
<path d="M191.962 82.6026L184.322 84.7878L182.666 73.5151C183.048 72.648 183.533 72.1017 184.4 72.0584C184.46 72.0408 184.523 72.0408 184.582 72.0584C184.64 72.0498 184.698 72.0498 184.756 72.0584C184.84 72.0723 184.922 72.0986 184.999 72.1364C184.999 72.1364 184.999 72.1364 185.042 72.1364C185.085 72.1364 185.285 72.3532 185.397 72.4832C186.26 73.4131 187.035 74.4203 187.713 75.4922C188.432 76.5761 189.187 77.7901 189.924 79.0387C190.34 79.7411 190.739 80.4435 191.155 81.1459C191.398 81.6748 191.71 82.1344 191.962 82.6026Z" fill="#AF6152"/>
<path d="M177.229 74.5471C177.2 74.9654 177.049 75.366 176.795 75.6992C176.54 76.0324 176.193 76.2836 175.797 76.4216C175.401 76.5596 174.974 76.5784 174.567 76.4755C174.161 76.3727 173.793 76.1528 173.511 75.8431C173.228 75.5335 173.042 75.1476 172.977 74.7335C172.911 74.3193 172.969 73.895 173.142 73.5133C173.316 73.1315 173.598 72.8091 173.953 72.5859C174.308 72.3627 174.72 72.2487 175.139 72.2578C175.428 72.2689 175.711 72.3372 175.972 72.4586C176.234 72.5801 176.469 72.7523 176.663 72.9653C176.858 73.1783 177.008 73.4278 177.105 73.6994C177.202 73.9709 177.244 74.2591 177.229 74.5471V74.5471Z" fill="#012622"/>
<path d="M176.7 65.7108L171.645 67.0896C171.475 66.4015 171.579 65.6746 171.932 65.0606C172.286 64.4466 172.864 63.9931 173.544 63.7945C173.877 63.7117 174.223 63.6957 174.562 63.7474C174.902 63.7991 175.227 63.9174 175.521 64.0955C175.814 64.2737 176.07 64.5081 176.272 64.7853C176.474 65.0626 176.62 65.3771 176.7 65.7108V65.7108Z" fill="#012622"/>
<path d="M196.046 65.9016L190.843 64.9218C190.89 64.5815 191.005 64.2542 191.183 63.96C191.36 63.6658 191.596 63.4107 191.875 63.2104C192.154 63.01 192.471 62.8685 192.806 62.7945C193.141 62.7205 193.488 62.7156 193.826 62.78C194.526 62.9153 195.148 63.3151 195.561 63.8963C195.974 64.4776 196.148 65.1957 196.046 65.9016Z" fill="#012622"/>
<path d="M193.895 74.131C193.83 74.5452 193.645 74.9311 193.362 75.2409C193.079 75.5507 192.712 75.7707 192.306 75.8736C191.899 75.9765 191.471 75.9579 191.075 75.82C190.679 75.682 190.332 75.4309 190.078 75.0977C189.823 74.7645 189.672 74.3639 189.643 73.9456C189.614 73.5273 189.708 73.1096 189.915 72.7444C190.121 72.3793 190.43 72.0827 190.803 71.8914C191.176 71.7001 191.597 71.6225 192.014 71.6683C192.299 71.7057 192.575 71.7991 192.824 71.9433C193.073 72.0875 193.292 72.2795 193.467 72.5083C193.642 72.7372 193.769 72.9984 193.843 73.2769C193.917 73.5553 193.934 73.8456 193.895 74.131V74.131Z" fill="#012622"/>
<path d="M171.766 119.551C161.092 120.739 151.866 114.756 150.747 112.458C149.629 110.16 152.091 105.859 152.057 103.934C152.022 102.009 152.507 100.414 154.068 100.951L153.947 103.475C153.947 103.475 155.681 107.117 165.549 108.504C175.417 109.891 178.556 106.943 178.556 106.943L178.773 105.512C179.579 105.512 180.429 105.512 181.244 105.512C181.058 106.899 181.134 108.308 181.47 109.666C182.103 111.816 182.458 118.363 171.766 119.551Z" fill="#EBEBEB"/>
<path d="M250.146 145.426C250.146 145.426 249.695 143.154 252.426 140.544C255.158 137.934 258.869 135.636 259.433 129.931L263.899 131.795L258.418 144.455L250.146 145.426Z" fill="#59114D"/>
<path opacity="0.75" d="M250.146 145.426C250.146 145.426 249.695 143.154 252.426 140.544C255.158 137.934 258.869 135.636 259.433 129.931L263.899 131.795L258.418 144.455L250.146 145.426Z" fill="white"/>
<path d="M250.146 145.426C250.146 145.426 245.316 143.692 235.639 147.065C225.962 150.438 218.166 154.106 199.02 156.144L204.344 158.364L253.571 149.103L250.146 145.426Z" fill="#59114D"/>
<path opacity="0.75" d="M250.146 145.426C250.146 145.426 245.316 143.692 235.639 147.065C225.962 150.438 218.166 154.106 199.02 156.144L204.344 158.364L253.571 149.103L250.146 145.426Z" fill="white"/>
<path d="M199.02 156.144L188.632 215.499L193.956 217.719L204.336 158.364L199.02 156.144Z" fill="#59114D"/>
<path opacity="0.8" d="M199.02 156.144L188.632 215.499L193.956 217.719L204.336 158.364L199.02 156.144Z" fill="white"/>
<path opacity="0.1" d="M199.02 156.144L188.632 215.499L193.956 217.719L204.336 158.364L199.02 156.144Z" fill="black"/>
<g opacity="0.1">
<path d="M259.823 132.992C259.512 134.244 258.958 135.422 258.193 136.46C257.421 137.495 256.581 138.477 255.678 139.4C254.764 140.282 253.939 141.252 253.215 142.296C252.886 142.819 252.624 143.381 252.435 143.97C252.25 144.528 252.202 145.123 252.296 145.704L251.698 145.869C251.599 145.173 251.676 144.463 251.923 143.805C252.146 143.188 252.452 142.604 252.834 142.071C253.608 141.038 254.479 140.083 255.435 139.218C256.362 138.338 257.231 137.4 258.037 136.408C258.849 135.397 259.456 134.236 259.823 132.992V132.992Z" fill="black"/>
<path d="M259.441 136.313C259.117 137.086 258.691 137.812 258.175 138.472C257.681 139.14 257.17 139.799 256.693 140.475C256.209 141.142 255.791 141.853 255.444 142.6C255.101 143.316 254.929 144.103 254.941 144.898H254.325C254.36 144.019 254.601 143.16 255.028 142.392C255.432 141.647 255.905 140.941 256.441 140.284C256.97 139.634 257.516 139.01 258.045 138.368C258.602 137.749 259.071 137.058 259.441 136.313V136.313Z" fill="black"/>
<path d="M218.166 154.106C220.853 153.509 223.505 152.762 226.109 151.869C228.711 151.002 231.269 149.987 233.853 149.025C236.433 148.034 239.114 147.327 241.848 146.918C243.219 146.701 244.604 146.579 245.992 146.553C246.694 146.547 247.395 146.587 248.091 146.675C248.826 146.761 249.533 147.006 250.163 147.395L249.799 147.889C249.251 147.554 248.64 147.335 248.004 147.247C247.338 147.147 246.666 147.095 245.992 147.091C244.629 147.091 243.267 147.187 241.917 147.377C239.2 147.732 236.531 148.383 233.957 149.32C231.355 150.23 228.754 151.184 226.153 152.016C223.531 152.861 220.865 153.559 218.166 154.106V154.106Z" fill="black"/>
<path d="M231.251 152.173C232.769 151.765 234.243 151.254 235.734 150.768C237.226 150.282 238.709 149.797 240.226 149.398C241.744 148.987 243.292 148.697 244.856 148.531C246.446 148.318 248.06 148.407 249.617 148.791L249.444 149.381C247.967 148.968 246.425 148.835 244.9 148.99C243.35 149.114 241.813 149.363 240.304 149.736C238.778 150.092 237.278 150.516 235.778 150.95C234.278 151.384 232.777 151.817 231.251 152.173Z" fill="black"/>
</g>
<path d="M263.543 128.933L257.161 143.935L246.018 207.573L248.68 208.683L254.646 190.543L266.196 130.043L263.543 128.933Z" fill="#59114D"/>
<path opacity="0.2" d="M259.823 145.045L266.196 130.043L254.646 190.543L248.68 208.683L259.823 145.045Z" fill="black"/>
<path d="M249.617 149.684L201.101 159.118L189.958 222.757L192.621 223.875L241.128 214.441L252.279 150.802L249.617 149.684Z" fill="#59114D"/>
<path opacity="0.2" d="M203.763 160.228L192.621 223.875L241.128 214.441L252.279 150.802L203.763 160.228Z" fill="black"/>
<path opacity="0.35" d="M201.101 159.118L203.763 160.228L192.621 223.875L189.958 222.757L201.101 159.118Z" fill="black"/>
<path d="M252.279 150.802L259.823 145.045L248.681 208.683C247.814 212.152 245.212 213.981 241.128 214.441L252.279 150.802Z" fill="#59114D"/>
<path opacity="0.35" d="M252.279 150.802L259.823 145.045L248.681 208.683C247.701 212.36 244.995 214.059 241.128 214.441L252.279 150.802Z" fill="black"/>
<path d="M256.866 143.805C255.236 143.12 252.236 143.805 250.146 145.426C248.056 147.048 247.7 148.895 249.331 149.554L252.279 150.803L259.823 145.045L257.161 143.935L256.866 143.805Z" fill="#455A64"/>
<path d="M257.161 143.935C256.979 146.337 254.169 148.192 249.617 149.684L252.279 150.802C256.224 149.822 258.678 147.854 259.823 145.044L257.161 143.935Z" fill="#59114D"/>
<path d="M137.948 118.458C127.933 124.338 122.652 127.954 121.898 141.758C121.031 157.289 120.779 169.411 122.418 194.896C122.799 200.966 121.655 208.458 135.425 210.435C153.028 212.967 178.426 212.949 184.773 212.906C188.831 212.906 197.78 212.906 200.876 212.221C210.579 210.166 215.279 203.853 218.08 200.532C219.632 198.694 221.106 196.483 220.854 194.089C220.685 193.336 220.618 192.563 220.655 191.792C220.887 191.062 221.195 190.358 221.574 189.693C221.902 188.899 221.966 188.02 221.756 187.187C221.475 186.471 221.26 185.731 221.115 184.976C221.01 183.432 222.32 182.192 222.849 180.727C222.942 180.511 222.972 180.274 222.936 180.042C222.831 179.548 222.259 179.288 221.756 179.218C219.692 178.932 216.918 180.085 215.253 181.308C209.391 185.644 206.269 190.664 197.589 191.714C195.517 191.956 192.933 191.341 193.254 189.286L193.965 185.219C189.083 186.675 186.846 191.818 182.822 193.023C179.258 194.098 148.917 186.901 148.917 186.901L148.727 156.43C148.727 156.43 150.738 126.956 137.948 118.458Z" fill="#C8856A"/>
<path d="M138.087 116.663C130.127 120.938 122.565 125.179 121.533 137.726C120.502 150.273 120.467 170.581 121.23 187.733C121.993 204.885 122.375 206.368 127.586 209.004C136.916 213.721 165.202 212.663 165.202 212.663C165.202 212.663 162.384 209.706 163.19 201.789C163.997 193.872 166.832 190.829 166.832 190.829L149.889 186.563C149.889 186.563 150.279 158.233 149.975 149.649C149.672 141.064 147.122 123.618 138.087 116.663Z" fill="#E0E0E0"/>
<path d="M259.476 165.231C259.077 167.313 257.621 170.07 256.806 171.848C255.99 173.625 256.337 175.42 257.465 175.793L255.453 186.337C255.453 186.337 256.91 186.337 259.589 182.609C262.269 178.88 263.734 172.151 263.985 168.579C264.237 165.006 264.089 158.659 260.968 157.427L259.476 165.231Z" fill="#C8856A"/>
<path d="M255.193 66.3525C249.759 69.6451 243.274 70.74 237.061 69.4135L234.295 68.6591C228.327 66.6727 223.325 62.5115 220.286 57.0039C217.248 51.4963 216.394 45.0463 217.897 38.938C219.399 32.8297 223.146 27.5111 228.393 24.0411C233.639 20.5711 240 19.2043 246.209 20.2126L249.01 20.8283C253.714 22.1453 257.929 24.8099 261.136 28.4936C264.343 32.1773 266.403 36.719 267.06 41.5589C267.717 46.3988 266.944 51.3252 264.835 55.7309C262.726 60.1365 259.375 63.8288 255.193 66.3525V66.3525Z" fill="white"/>
<path d="M265.477 30.8522C261.955 25.0123 256.365 20.7107 249.818 18.8016C243.271 16.8925 236.246 17.5155 230.137 20.547C224.028 23.5786 219.282 28.7968 216.843 35.1653C214.404 41.5339 214.449 48.5869 216.97 54.9237L211.81 61.6006C211.614 61.8527 211.498 62.1586 211.479 62.4777C211.46 62.7969 211.539 63.1143 211.704 63.3878C211.87 63.6614 212.114 63.8783 212.406 64.0097C212.697 64.1412 213.022 64.181 213.336 64.1239L221.652 62.6585C226.097 67.8286 232.324 71.1382 239.096 71.9302C245.869 72.7222 252.691 70.9387 258.209 66.9338C263.727 62.9289 267.538 56.9954 268.884 50.3113C270.231 43.6271 269.014 36.6811 265.477 30.8522V30.8522ZM255.193 66.3525C249.759 69.6451 243.274 70.7399 237.061 69.4134L234.295 68.659C228.326 66.6726 223.325 62.5114 220.286 57.0038C217.247 51.4962 216.394 45.0462 217.896 38.9379C219.399 32.8296 223.146 27.511 228.393 24.0411C233.639 20.5711 240 19.2042 246.209 20.2126L249.01 20.8282C253.713 22.1452 257.929 24.8098 261.136 28.4935C264.343 32.1772 266.403 36.719 267.06 41.5588C267.717 46.3987 266.944 51.3251 264.835 55.7308C262.726 60.1365 259.374 63.8287 255.193 66.3525V66.3525Z" fill="#E0E0E0"/>
<path d="M242.212 59.4764C224.54 50.042 223.135 39.9313 228.277 34.9974C232.881 30.5837 241.284 33.5059 242.229 39.8359C243.174 33.5146 251.603 30.601 256.199 35.0321C261.332 39.9747 259.892 50.1027 242.212 59.4764Z" fill="#59114D"/>
<path d="M112.099 359.633L74.0148 381.138L15.5356 347.58L53.6113 326.075L112.099 359.633Z" fill="#59114D"/>
<path opacity="0.6" d="M112.099 359.633L74.0148 381.138L15.5356 347.58L53.6113 326.075L112.099 359.633Z" fill="black"/>
<path d="M73.5986 379.612L110.4 358.705C109.532 356.104 109.532 355.323 110.59 351.872L74.0148 372.562C74.0148 372.562 73.3471 372.475 73.5986 379.612Z" fill="#F5F5F5"/>
<path d="M75.8012 369.683C74.8237 370.315 74.0095 371.169 73.4248 372.176C72.8401 373.183 72.5016 374.313 72.4368 375.475V379.993C72.4368 382.126 73.9456 382.993 75.8012 381.927L112.091 361.315V359.668L76.2521 379.898C75.1422 380.539 74.2404 380.019 74.2404 378.745V374.712C74.2788 374.017 74.481 373.34 74.8306 372.737C75.1802 372.134 75.6673 371.623 76.2521 371.244L112.091 350.996V349.097L75.8012 369.683Z" fill="#59114D"/>
<path opacity="0.5" d="M75.8012 369.683C74.8237 370.315 74.0095 371.169 73.4248 372.176C72.8401 373.183 72.5016 374.313 72.4368 375.475V379.993C72.4368 382.126 73.9456 382.993 75.8012 381.927L112.091 361.315V359.668L76.2521 379.898C75.1422 380.539 74.2404 380.019 74.2404 378.745V374.712C74.2788 374.017 74.481 373.34 74.8306 372.737C75.1802 372.134 75.6673 371.623 76.2521 371.244L112.091 350.996V349.097L75.8012 369.683Z" fill="black"/>
<path d="M112.09 349.072L53.6113 315.514L17.3219 336.125C16.3428 336.757 15.5269 337.61 14.9407 338.617C14.3544 339.624 14.0146 340.755 13.9488 341.918V346.444C13.9061 346.86 13.9752 347.279 14.149 347.658C14.3228 348.038 14.595 348.364 14.9373 348.603L73.4165 382.161C73.0728 381.923 72.7996 381.597 72.6256 381.217C72.4516 380.837 72.3834 380.418 72.428 380.002V375.476C72.4911 374.314 72.828 373.184 73.4112 372.177C73.9944 371.17 74.8074 370.316 75.7838 369.683L112.09 349.072Z" fill="#59114D"/>
<path opacity="0.35" d="M112.09 349.072L53.6113 315.514L17.3219 336.125C16.3428 336.757 15.5269 337.61 14.9407 338.617C14.3544 339.624 14.0146 340.755 13.9488 341.918V346.444C13.9061 346.86 13.9752 347.279 14.149 347.658C14.3228 348.038 14.595 348.364 14.9373 348.603L73.4165 382.161C73.0728 381.923 72.7996 381.597 72.6256 381.217C72.4516 380.837 72.3834 380.418 72.428 380.002V375.476C72.4911 374.314 72.828 373.184 73.4112 372.177C73.9944 371.17 74.8074 370.316 75.7838 369.683L112.09 349.072Z" fill="black"/>
<path d="M73.4167 372.18C72.8139 373.177 72.4765 374.311 72.4368 375.476V380.002C72.3922 380.417 72.4605 380.837 72.6344 381.217C72.8084 381.597 73.0816 381.923 73.4253 382.161L14.9462 348.603C14.6023 348.365 14.3284 348.039 14.153 347.66C13.9776 347.28 13.9072 346.86 13.949 346.444V341.918C13.9878 340.752 14.3284 339.617 14.9375 338.623L73.4167 372.18Z" fill="#59114D"/>
<path opacity="0.25" d="M73.4167 372.18C72.8139 373.177 72.4765 374.311 72.4368 375.476V380.002C72.3922 380.417 72.4605 380.837 72.6344 381.217C72.8084 381.597 73.0816 381.923 73.4253 382.161L14.9462 348.603C14.6023 348.365 14.3284 348.039 14.153 347.66C13.9776 347.28 13.9072 346.86 13.949 346.444V341.918C13.9878 340.752 14.3284 339.617 14.9375 338.623L73.4167 372.18Z" fill="black"/>
<path d="M22.8457 343.106C21.7531 347.84 21.7704 349.687 22.8457 353.164L25.6378 354.769C24.5626 351.3 24.5452 349.453 25.6378 344.719L22.8457 343.106Z" fill="#59114D"/>
<path d="M61.1987 365.148C60.1061 369.883 60.1234 371.669 61.1987 375.146L63.9822 376.75C62.9069 373.282 62.8983 371.487 63.9822 366.761L61.1987 365.148Z" fill="#59114D"/>
<path d="M119.782 348.508L81.6975 370.013L23.2097 336.455L61.294 314.95L119.782 348.508Z" fill="#59114D"/>
<path opacity="0.4" d="M119.782 348.508L81.6975 370.013L23.2097 336.455L61.294 314.95L119.782 348.508Z" fill="black"/>
<path d="M81.2815 368.443L118.082 347.528C117.163 344.927 117.215 343.773 118.273 340.322L81.6977 361.012C81.6977 361.012 81.03 361.341 81.2815 368.443Z" fill="#F5F5F5"/>
<path d="M83.4838 358.185C82.5054 358.816 81.6904 359.67 81.1056 360.677C80.5208 361.684 80.1828 362.815 80.1194 363.978V368.868C80.1194 371.001 81.6195 371.868 83.4838 370.802L119.738 350.182V348.508L83.9001 368.738C82.7901 369.38 81.8883 368.859 81.8883 367.576V363.18C81.931 362.484 82.136 361.808 82.4869 361.206C82.8377 360.603 83.3246 360.092 83.9087 359.711L119.738 339.472V337.573L83.4838 358.185Z" fill="#59114D"/>
<path opacity="0.25" d="M83.4838 358.185C82.5054 358.816 81.6904 359.67 81.1056 360.677C80.5208 361.684 80.1828 362.815 80.1194 363.978V368.868C80.1194 371.001 81.6195 371.868 83.4838 370.802L119.738 350.182V348.508L83.9001 368.738C82.7901 369.38 81.8883 368.859 81.8883 367.576V363.18C81.931 362.484 82.136 361.808 82.4869 361.206C82.8377 360.603 83.3246 360.092 83.9087 359.711L119.738 339.472V337.573L83.4838 358.185Z" fill="black"/>
<path d="M119.738 337.573L61.294 304.015L25.0047 324.627C24.0272 325.259 23.2129 326.113 22.6282 327.12C22.0435 328.127 21.705 329.257 21.6402 330.419V335.31C21.5968 335.726 21.6646 336.146 21.8368 336.527C22.009 336.907 22.2793 337.236 22.6201 337.478L81.1079 371.036C80.7655 370.797 80.4934 370.47 80.3196 370.091C80.1457 369.711 80.0766 369.292 80.1194 368.877V364.003C80.1838 362.843 80.5214 361.715 81.1045 360.71C81.6877 359.704 82.4999 358.851 83.4751 358.22L119.738 337.573Z" fill="#59114D"/>
<path d="M81.0992 360.682C80.4964 361.676 80.159 362.807 80.1194 363.969V368.877C80.0766 369.292 80.1458 369.711 80.3196 370.091C80.4934 370.471 80.7655 370.797 81.1079 371.036L22.6201 337.478C22.2793 337.236 22.009 336.908 21.8368 336.527C21.6646 336.146 21.5968 335.726 21.6402 335.31V330.42C21.6799 329.256 22.0173 328.121 22.6201 327.125L81.0992 360.682Z" fill="#59114D"/>
<path opacity="0.15" d="M81.0992 360.682C80.4964 361.676 80.159 362.807 80.1194 363.969V368.877C80.0766 369.292 80.1458 369.711 80.3196 370.091C80.4934 370.471 80.7655 370.797 81.1079 371.036L22.6201 337.478C22.2793 337.236 22.009 336.908 21.8368 336.527C21.6646 336.146 21.5968 335.726 21.6402 335.31V330.42C21.6799 329.256 22.0173 328.121 22.6201 327.125L81.0992 360.682Z" fill="black"/>
<path d="M30.5196 331.608C29.4357 336.342 29.453 338.545 30.5196 342.013L33.3031 343.617C32.2365 340.149 32.2191 337.92 33.3031 333.212L30.5196 331.608Z" fill="#59114D"/>
<path d="M68.8813 353.676C67.7887 358.411 67.8061 360.552 68.8813 364.03L71.6648 365.634C70.5895 362.165 70.5722 360.006 71.6648 355.272L68.8813 353.676Z" fill="#59114D"/>
<g opacity="0.4">
<path d="M30.5196 331.608C29.4357 336.342 29.453 338.545 30.5196 342.013L33.3031 343.617C32.2365 340.149 32.2191 337.92 33.3031 333.212L30.5196 331.608Z" fill="white"/>
<path d="M68.8813 353.676C67.7887 358.411 67.8061 360.552 68.8813 364.03L71.6648 365.634C70.5895 362.165 70.5722 360.006 71.6648 355.272L68.8813 353.676Z" fill="white"/>
</g>
<path d="M115.021 336.151L113.426 335.284L114.883 334.937C115.022 335.104 115.109 335.308 115.134 335.523C115.159 335.739 115.119 335.957 115.021 336.151V336.151Z" fill="#59114D"/>
<path opacity="0.5" d="M115.021 336.151L113.426 335.284L114.883 334.937C115.022 335.104 115.109 335.308 115.134 335.523C115.159 335.739 115.119 335.957 115.021 336.151V336.151Z" fill="black"/>
<path d="M72.6881 357.474C73.1928 357.727 73.7495 357.858 74.3139 357.858C74.8784 357.858 75.435 357.727 75.9398 357.474L112.42 336.403L57.7908 305.377L56.5075 304.64L20.0187 325.191C19.8196 325.255 19.6461 325.381 19.5229 325.55C19.3998 325.719 19.3335 325.923 19.3335 326.132C19.3335 326.341 19.3998 326.545 19.5229 326.714C19.6461 326.883 19.8196 327.008 20.0187 327.073L72.6881 357.474Z" fill="#59114D"/>
<path d="M86.3887 318.184L99.1095 325.512L107.347 320.751L116.886 326.292V332.683C116.886 333.55 115.949 334.712 115.602 334.512C114.972 334.667 114.359 334.885 113.773 335.163C112.832 335.712 111.959 336.37 111.171 337.122L81.9316 320.751L86.3887 318.184Z" fill="#59114D"/>
<path opacity="0.15" d="M86.3887 318.184L99.1095 325.512L107.347 320.751L116.886 326.292V332.683C116.886 333.55 115.949 334.712 115.602 334.512C114.972 334.667 114.359 334.885 113.773 335.163C112.832 335.712 111.959 336.37 111.171 337.122L81.9316 320.751L86.3887 318.184Z" fill="black"/>
<path d="M111.674 327.055V333.992L111.787 333.923C112.255 333.633 112.789 333.466 113.339 333.437C113.699 333.4 114.062 333.482 114.371 333.671V325.503L111.674 327.055Z" fill="#37474F"/>
<path d="M109.879 336.385C109.911 335.953 110.071 335.539 110.339 335.197C110.475 335.015 110.626 334.844 110.79 334.686L110.946 334.538C111.008 334.479 111.075 334.424 111.145 334.374L111.31 334.244L111.674 334.001V327.064L109.888 328.096V336.359L109.879 336.385Z" fill="#E0E0E0"/>
<path opacity="0.4" d="M116.929 332.683C116.929 333.55 115.993 334.712 115.646 334.512L114.371 333.689V328.451L115.654 326.249L116.348 325.997L116.929 326.335V332.683Z" fill="black"/>
<path d="M74.3096 348.629V356.546C74.6866 356.558 75.0601 356.471 75.3935 356.295L79.3996 353.988L109.888 336.385V328.087L74.3096 348.629Z" fill="#EBEBEB"/>
<path d="M20.9553 318.913V324.896C20.9834 325.262 21.0959 325.617 21.2839 325.933C21.4719 326.249 21.7304 326.517 22.0392 326.717L69.2284 353.971L73.2258 356.277C73.5596 356.452 73.9329 356.539 74.3097 356.529V349.505L20.9553 318.913Z" fill="#F5F5F5"/>
<path d="M57.8081 295.084L112.437 326.622V327.359C112.437 327.766 113.01 327.914 113.712 327.506C114.414 327.099 114.987 326.596 114.987 325.893L115.056 325.2L59.3863 293.072L59.1608 292.942C59.1043 293.047 59.0717 293.162 59.0654 293.281V293.619C59.0394 294.018 58.5018 294.633 57.8081 295.084Z" fill="#59114D"/>
<path opacity="0.1" d="M57.8081 295.084L112.437 326.622V327.359C112.437 327.766 113.01 327.914 113.712 327.506C114.414 327.099 114.987 326.596 114.987 325.893L115.056 325.2L59.3863 293.072L59.1608 292.942C59.1043 293.047 59.0717 293.162 59.0654 293.281V293.619C59.0394 294.018 58.5018 294.633 57.8081 295.084Z" fill="black"/>
<path d="M75.9398 347.693L111.613 327.09C112.064 326.856 112.481 326.665 112.654 326.752L112.42 326.622L57.7908 295.084L57.1491 294.72C56.8596 294.63 56.5536 294.606 56.2536 294.65C55.9536 294.693 55.667 294.803 55.4149 294.971L20.0187 315.444C19.8196 315.509 19.6461 315.634 19.5229 315.803C19.3998 315.972 19.3335 316.176 19.3335 316.385C19.3335 316.594 19.3998 316.798 19.5229 316.967C19.6461 317.136 19.8196 317.262 20.0187 317.326L72.6621 347.728C73.1729 347.979 73.7357 348.107 74.3051 348.101C74.8744 348.095 75.4344 347.955 75.9398 347.693V347.693Z" fill="#59114D"/>
<path d="M59.1609 292.942L59.3863 293.072L115.039 325.199C115.066 325.139 115.108 325.085 115.16 325.043L115.342 324.939L115.75 324.705L116.244 324.419C116.339 324.355 116.453 324.326 116.567 324.338C116.681 324.349 116.787 324.399 116.868 324.48C116.895 324.491 116.919 324.509 116.938 324.532C117.001 324.603 117.057 324.682 117.102 324.766C117.162 324.865 117.211 324.969 117.25 325.078C117.294 325.197 117.331 325.319 117.363 325.442L117.441 325.867C117.445 325.951 117.445 326.035 117.441 326.119C117.436 326.188 117.436 326.257 117.441 326.327C117.441 326.483 117.441 326.647 117.441 326.821V325.251C117.382 324.737 117.205 324.243 116.922 323.809C116.639 323.376 116.258 323.014 115.81 322.754L63.2364 292.353C62.8023 292.097 62.3151 291.945 61.8127 291.909C61.3103 291.873 60.8063 291.954 60.3402 292.144L59.6725 292.535C59.6725 292.535 59.5164 292.63 59.395 292.699C59.2918 292.752 59.2092 292.837 59.1609 292.942V292.942Z" fill="#59114D"/>
<path d="M75.9397 357.465L78.1162 356.199L111.145 337.122C111.173 336.69 111.33 336.276 111.596 335.934C111.988 335.418 112.48 334.988 113.044 334.668C113.512 334.378 114.046 334.21 114.596 334.183C114.969 334.175 115.333 334.294 115.628 334.521C116.053 333.671 116.261 332.73 116.235 331.781H117.484C117.484 333.515 116.911 335.249 116.218 335.639L115.585 336.012C115.221 336.22 114.943 336.229 114.943 336.012V335.674C114.943 335.301 114.371 335.319 113.668 335.726C112.966 336.134 112.394 336.758 112.394 337.14V337.478C112.394 337.669 111.908 338.102 111.319 338.449L79.3735 356.893L75.905 358.887C75.4046 359.147 74.8473 359.278 74.2834 359.269V357.821C74.8573 357.851 75.4288 357.728 75.9397 357.465V357.465Z" fill="#59114D"/>
<path opacity="0.3" d="M75.9397 357.465L78.1162 356.199L111.145 337.122C111.173 336.69 111.33 336.276 111.596 335.934C111.988 335.418 112.48 334.988 113.044 334.668C113.512 334.378 114.046 334.21 114.596 334.183C114.969 334.175 115.333 334.294 115.628 334.521C116.053 333.671 116.261 332.73 116.235 331.781H117.484C117.484 333.515 116.911 335.249 116.218 335.639L115.585 336.012C115.221 336.22 114.943 336.229 114.943 336.012V335.674C114.943 335.301 114.371 335.319 113.668 335.726C112.966 336.134 112.394 336.758 112.394 337.14V337.478C112.394 337.669 111.908 338.102 111.319 338.449L79.3735 356.893L75.905 358.887C75.4046 359.147 74.8473 359.278 74.2834 359.269V357.821C74.8573 357.851 75.4288 357.728 75.9397 357.465V357.465Z" fill="black"/>
<path d="M19.377 316.311V317.777C19.3921 317.974 19.4595 318.164 19.5723 318.327C19.685 318.49 19.8391 318.621 20.0186 318.705V318.705L69.2022 347.103L72.6707 349.106C73.171 349.366 73.7284 349.497 74.2922 349.488V348.048C73.7272 348.059 73.1688 347.925 72.6707 347.658L70.4682 346.383L20.0186 317.291C19.8303 317.205 19.6702 317.067 19.5567 316.894C19.4432 316.72 19.3809 316.518 19.377 316.311V316.311Z" fill="#59114D"/>
<path opacity="0.2" d="M19.377 316.311V317.777C19.3921 317.974 19.4595 318.164 19.5723 318.327C19.685 318.49 19.8391 318.621 20.0186 318.705V318.705L69.2022 347.103L72.6707 349.106C73.171 349.366 73.7284 349.497 74.2922 349.488V348.048C73.7272 348.059 73.1688 347.925 72.6707 347.658L70.4682 346.383L20.0186 317.291C19.8303 317.205 19.6702 317.067 19.5567 316.894C19.4432 316.72 19.3809 316.518 19.377 316.311V316.311Z" fill="black"/>
<path d="M19.377 326.11V327.584C19.3918 327.781 19.4592 327.97 19.5721 328.131C19.685 328.293 19.8392 328.421 20.0186 328.503V328.503L69.2022 356.902L72.6707 358.896C73.171 359.156 73.7284 359.287 74.2922 359.278V357.829C73.7267 357.845 73.1673 357.71 72.6707 357.439L70.4855 356.199L20.0186 327.064C19.8336 326.98 19.6755 326.847 19.5622 326.678C19.4489 326.51 19.3847 326.313 19.377 326.11V326.11Z" fill="#59114D"/>
<path opacity="0.2" d="M19.377 326.11V327.584C19.3918 327.781 19.4592 327.97 19.5721 328.131C19.685 328.293 19.8392 328.421 20.0186 328.503V328.503L69.2022 356.902L72.6707 358.896C73.171 359.156 73.7284 359.287 74.2922 359.278V357.829C73.7267 357.845 73.1673 357.71 72.6707 357.439L70.4855 356.199L20.0186 327.064C19.8336 326.98 19.6755 326.847 19.5622 326.678C19.4489 326.51 19.3847 326.313 19.377 326.11V326.11Z" fill="black"/>
<path d="M115.411 317.881L72.7487 342.178L16.0125 309.617L58.6752 285.311L115.411 317.881Z" fill="#59114D"/>
<path opacity="0.2" d="M115.411 317.881L72.7487 342.178L16.0125 309.617L58.6752 285.311L115.411 317.881Z" fill="white"/>
<path d="M72.3584 340.686L113.807 316.953C112.94 314.496 112.998 311.632 113.981 308.36L72.7486 331.92C72.7486 331.92 72.1156 333.966 72.3584 340.686Z" fill="#F5F5F5"/>
<path d="M74.4397 329.214C73.5121 329.809 72.7396 330.616 72.1861 331.569C71.6327 332.523 71.3143 333.594 71.2573 334.694V341.094C71.2573 343.114 72.6794 343.929 74.4397 342.923L115.403 319.459V317.881L74.8733 340.972C73.8154 341.571 72.9656 341.085 72.9656 339.871V333.94C73.0029 333.28 73.196 332.638 73.5291 332.066C73.8622 331.495 74.3257 331.011 74.8819 330.653L115.403 307.553V305.75L74.4397 329.214Z" fill="#59114D"/>
<path opacity="0.4" d="M74.4397 329.214C73.5121 329.809 72.7396 330.616 72.1861 331.569C71.6327 332.523 71.3143 333.594 71.2573 334.694V341.094C71.2573 343.114 72.6794 343.929 74.4397 342.923L115.403 319.459V317.881L74.8733 340.972C73.8154 341.571 72.9656 341.085 72.9656 339.871V333.94C73.0029 333.28 73.196 332.638 73.5291 332.066C73.8622 331.495 74.3257 331.011 74.8819 330.653L115.403 307.553V305.75L74.4397 329.214Z" fill="white"/>
<path d="M115.403 305.758L58.6664 273.198L17.7033 296.653C16.7786 297.251 16.0083 298.06 15.4553 299.012C14.9022 299.964 14.5821 301.034 14.5209 302.134V308.507C14.4795 308.901 14.5446 309.298 14.7093 309.658C14.8741 310.018 15.1324 310.327 15.4574 310.553L72.1936 343.114C71.8686 342.888 71.6103 342.579 71.4456 342.219C71.2808 341.859 71.2157 341.461 71.2571 341.068V334.694C71.3141 333.594 71.6325 332.523 72.1859 331.57C72.7394 330.616 73.5119 329.809 74.4395 329.214L115.403 305.758Z" fill="#59114D"/>
<path opacity="0.85" d="M115.403 305.758L58.6664 273.198L17.7033 296.653C16.7786 297.251 16.0083 298.06 15.4553 299.012C14.9022 299.964 14.5821 301.034 14.5209 302.134V308.507C14.4795 308.901 14.5446 309.298 14.7093 309.658C14.8741 310.018 15.1324 310.327 15.4574 310.553L72.1936 343.114C71.8686 342.888 71.6103 342.579 71.4456 342.219C71.2808 341.859 71.2157 341.461 71.2571 341.068V334.694C71.3141 333.594 71.6325 332.523 72.1859 331.57C72.7394 330.616 73.5119 329.809 74.4395 329.214L115.403 305.758Z" fill="white"/>
<path d="M72.1852 331.573C71.6144 332.517 71.295 333.591 71.2574 334.694V341.094C71.216 341.487 71.2811 341.885 71.4458 342.245C71.6105 342.605 71.8689 342.914 72.1939 343.14L15.4576 310.579C15.1285 310.351 14.8675 310.038 14.7025 309.673C14.5376 309.308 14.4749 308.905 14.5211 308.507V302.108C14.5602 301.004 14.8827 299.929 15.4576 298.986L72.1852 331.573Z" fill="#59114D"/>
<path opacity="0.6" d="M72.1852 331.573C71.6144 332.517 71.295 333.591 71.2574 334.694V341.094C71.216 341.487 71.2811 341.885 71.4458 342.245C71.6105 342.605 71.8689 342.914 72.1939 343.14L15.4576 310.579C15.1285 310.351 14.8675 310.038 14.7025 309.673C14.5376 309.308 14.4749 308.905 14.5211 308.507V302.108C14.5602 301.004 14.8827 299.929 15.4576 298.986L72.1852 331.573Z" fill="white"/>
<path d="M22.9325 303.304C21.9006 307.787 21.9179 311.655 22.9325 314.941L25.5338 316.467C24.5193 313.181 24.502 309.305 25.5338 304.83L22.9325 303.304Z" fill="white"/>
<path d="M60.6178 324.982C59.5859 329.465 59.6032 333.333 60.6178 336.619L63.2192 338.145C62.2046 334.859 62.1873 330.992 63.2192 326.509L60.6178 324.982Z" fill="white"/>
</svg>
