<svg width="350" height="340" viewBox="0 0 350 340" fill="none" xmlns="http://www.w3.org/2000/svg">
<path d="M175 339.423C271.65 339.423 350 294.187 350 238.386C350 182.585 271.65 137.35 175 137.35C78.3502 137.35 0 182.585 0 238.386C0 294.187 78.3502 339.423 175 339.423Z" fill="#F0F0F0"/>
<path d="M275.502 273.444C264.026 266.818 264.026 256.078 275.502 249.453C286.977 242.828 305.583 242.828 317.059 249.453C328.534 256.078 328.534 266.818 317.059 273.444C305.583 280.069 286.977 280.069 275.502 273.444Z" fill="#E0E0E0"/>
<path d="M42.0993 274.365L11.9138 256.94C10.2129 255.96 10.2129 254.363 11.9138 253.382L187.493 152.011C188.447 151.528 189.502 151.276 190.572 151.276C191.642 151.276 192.696 151.528 193.651 152.011L223.843 169.436C225.544 170.417 225.544 172.014 223.843 172.994L48.2641 274.365C47.3086 274.849 46.2527 275.101 45.1817 275.101C44.1107 275.101 43.0548 274.849 42.0993 274.365V274.365Z" fill="#E0E0E0"/>
<path d="M150.6 243.303L176.552 228.299C179.226 226.754 180.563 224.734 180.563 222.706C180.563 220.678 180.563 219.096 180.563 219.096L153.646 203.914C152.894 203.428 152.268 202.771 151.818 201.996C151.369 201.222 151.11 200.352 151.061 199.458V167.453L105.753 193.642V225.632C105.805 226.526 106.066 227.394 106.515 228.168C106.964 228.942 107.588 229.6 108.338 230.089L131.244 243.28C136.577 246.392 145.253 246.392 150.6 243.303Z" fill="#59114D"/>
<g opacity="0.6">
<path d="M150.6 243.303L176.552 228.299C179.226 226.754 180.563 224.734 180.563 222.706C180.563 220.678 180.563 219.096 180.563 219.096L153.646 203.914C152.894 203.428 152.268 202.771 151.818 201.996C151.369 201.222 151.11 200.352 151.061 199.458V167.453L105.753 193.642V225.632C105.805 226.526 106.066 227.394 106.515 228.168C106.964 228.942 107.588 229.6 108.338 230.089L131.244 243.28C136.577 246.392 145.253 246.392 150.6 243.303Z" fill="black"/>
</g>
<path opacity="0.3" d="M116.62 231.3V234.895L108.316 230.104C107.567 229.616 106.943 228.958 106.495 228.184C106.047 227.41 105.788 226.541 105.739 225.648V193.643L114.369 188.659C114.548 190.85 114.741 193.115 114.926 195.343L108.858 198.834V223.828C108.906 224.722 109.166 225.592 109.615 226.367C110.064 227.142 110.691 227.799 111.443 228.285L116.62 231.3Z" fill="black"/>
<path d="M108.858 223.836C108.909 224.729 109.17 225.598 109.619 226.372C110.068 227.146 110.692 227.804 111.443 228.292L131.215 239.686C136.563 242.768 145.238 242.776 150.593 239.686L176.59 224.682C181.945 221.592 181.945 216.586 176.59 213.496L156.803 202.103C156.054 201.613 155.431 200.955 154.983 200.181C154.536 199.407 154.276 198.539 154.225 197.646V172.645L108.917 198.834L108.858 223.836Z" fill="#59114D"/>
<path opacity="0.3" d="M108.858 223.836C108.909 224.729 109.17 225.598 109.619 226.372C110.068 227.146 110.692 227.804 111.443 228.292L131.215 239.686C136.563 242.768 145.238 242.776 150.593 239.686L176.59 224.682C181.945 221.592 181.945 216.586 176.59 213.496L156.803 202.103C156.054 201.613 155.431 200.955 154.983 200.181C154.536 199.407 154.276 198.539 154.225 197.646V172.645L108.917 198.834L108.858 223.836Z" fill="black"/>
<path opacity="0.5" d="M162.039 205.155L156.773 202.117C156.024 201.628 155.401 200.97 154.954 200.196C154.506 199.422 154.246 198.554 154.195 197.661V172.645L108.888 198.834V223.836C108.939 224.729 109.199 225.598 109.648 226.372C110.097 227.146 110.722 227.804 111.472 228.292L116.672 231.263L162.039 205.155Z" fill="black"/>
<path d="M180.571 219.104V222.714C180.571 224.742 179.226 226.755 176.56 228.307L150.563 243.303C147.718 244.822 144.541 245.611 141.316 245.598V242.004C144.541 242.016 147.718 241.227 150.563 239.708L176.56 224.697C179.226 223.16 180.571 221.132 180.571 219.104Z" fill="#59114D"/>
<path opacity="0.5" d="M180.571 219.104V222.714C180.571 224.742 179.226 226.755 176.56 228.307L150.563 243.303C147.718 244.822 144.541 245.611 141.316 245.598V242.004C144.541 242.016 147.718 241.227 150.563 239.708L176.56 224.697C179.226 223.16 180.571 221.132 180.571 219.104Z" fill="black"/>
<path d="M36.0681 254.905C37.0475 255.378 38.1245 255.614 39.212 255.595C40.2996 255.576 41.3674 255.301 42.3295 254.793L217.619 153.593C218.559 152.98 219.341 152.155 219.903 151.183C220.464 150.211 220.789 149.121 220.85 148V6.19408C220.817 5.104 220.526 4.03727 220.002 3.08082C219.478 2.12438 218.735 1.30528 217.835 0.690286C216.856 0.216674 215.78 -0.0194029 214.693 0.00124698C213.607 0.0218968 212.54 0.29869 211.581 0.809126L36.2909 102.039C35.3543 102.656 34.5767 103.485 34.0217 104.46C33.4666 105.434 33.1498 106.526 33.097 107.647V249.431C33.1302 250.512 33.4162 251.57 33.9321 252.521C34.4481 253.471 35.1796 254.288 36.0681 254.905Z" fill="#59114D"/>
<path d="M42.3518 254.786L217.641 153.586C218.583 152.974 219.366 152.149 219.927 151.177C220.489 150.205 220.813 149.114 220.872 147.993V6.19392C220.872 4.13649 219.424 3.29718 217.641 4.32961L42.3518 105.53C41.4115 106.142 40.6289 106.968 40.0675 107.94C39.5061 108.912 39.1818 110.002 39.1208 111.123V252.922C39.1208 254.979 40.5692 255.818 42.3518 254.786Z" fill="#59114D"/>
<path opacity="0.5" d="M42.3518 254.786L217.641 153.586C218.583 152.974 219.366 152.149 219.927 151.177C220.489 150.205 220.813 149.114 220.872 147.993V6.19392C220.872 4.13649 219.424 3.29718 217.641 4.32961L42.3518 105.53C41.4115 106.142 40.6289 106.968 40.0675 107.94C39.5061 108.912 39.1818 110.002 39.1208 111.123V252.922C39.1208 254.979 40.5692 255.818 42.3518 254.786Z" fill="black"/>
<path d="M41.8763 258.47C40.9571 258.872 39.9618 259.069 38.9591 259.048C37.9563 259.028 36.97 258.79 36.0679 258.352C35.1775 257.733 34.4448 256.914 33.9287 255.961C33.4127 255.008 33.1278 253.946 33.0969 252.863V239.954L39.1504 243.459V256.368C39.1132 258.248 40.3091 259.102 41.8763 258.47Z" fill="#59114D"/>
<path opacity="0.5" d="M41.8763 258.47C40.9571 258.872 39.9618 259.069 38.9591 259.048C37.9563 259.028 36.97 258.79 36.0679 258.352C35.1775 257.733 34.4448 256.914 33.9287 255.961C33.4127 255.008 33.1278 253.946 33.0969 252.863V239.954L39.1504 243.459V256.368C39.1132 258.248 40.3091 259.102 41.8763 258.47Z" fill="black"/>
<path d="M39.1134 243.459V256.368C39.1134 258.425 40.5989 259.257 42.3444 258.232L217.634 157.032C218.57 156.422 219.35 155.601 219.911 154.635C220.472 153.669 220.799 152.584 220.865 151.469V138.5L39.1134 243.459Z" fill="#59114D"/>
<path opacity="0.3" d="M39.1208 243.429V256.368C39.1208 258.425 40.6064 259.257 42.3518 258.232L217.641 157.032C218.576 156.421 219.355 155.6 219.914 154.634C220.474 153.668 220.8 152.584 220.865 151.469V138.5L39.1208 243.429Z" fill="black"/>
<path d="M45.1743 227.23V113.136C45.2089 112.464 45.4018 111.809 45.7375 111.226C46.0731 110.642 46.5418 110.146 47.1055 109.778L212.843 14.0599C213.913 13.4434 214.782 13.9411 214.782 15.174V129.328C214.746 130 214.552 130.655 214.215 131.239C213.878 131.822 213.408 132.318 212.843 132.685L47.1129 228.381C46.0433 228.998 45.1743 228.493 45.1743 227.23Z" fill="#59114D"/>
<path d="M45.1743 227.23V113.136C45.2089 112.464 45.4018 111.809 45.7375 111.226C46.0731 110.642 46.5418 110.146 47.1055 109.778L212.843 14.0599C213.913 13.4434 214.782 13.9411 214.782 15.174V129.328C214.746 130 214.552 130.655 214.215 131.239C213.878 131.822 213.408 132.318 212.843 132.685L47.1129 228.381C46.0433 228.998 45.1743 228.493 45.1743 227.23Z" fill="#455A64"/>
<path d="M129.989 195.091C129.107 195.665 128.373 196.439 127.846 197.35C127.319 198.261 127.015 199.284 126.959 200.335C126.959 202.266 128.318 203.053 129.989 202.088C130.872 201.513 131.607 200.738 132.134 199.825C132.661 198.913 132.964 197.889 133.02 196.836C133.02 194.905 131.66 194.125 129.989 195.091Z" fill="#59114D"/>
<path opacity="0.7" d="M40.0714 107.929C39.4957 108.896 39.1667 109.991 39.1132 111.115V243.459L33.0969 239.953V107.646C33.1359 106.518 33.4632 105.419 34.0476 104.453L40.0714 107.929Z" fill="black"/>
<path opacity="0.3" d="M220.835 5.65946C220.605 3.99569 219.261 3.4312 217.634 4.32993L42.3443 105.53C41.3939 106.124 40.6095 106.95 40.0641 107.929L34.0032 104.431C34.5523 103.452 35.339 102.627 36.2909 102.032L211.581 0.838993C212.541 0.328486 213.609 0.0516799 214.697 0.0310319C215.785 0.0103838 216.862 0.246476 217.842 0.720153C218.665 1.2812 219.359 2.01251 219.875 2.86465C220.392 3.71678 220.719 4.66987 220.835 5.65946Z" fill="black"/>
<path d="M230.291 23.1137C230.03 22.9831 229.739 22.9258 229.449 22.948C229.158 22.9703 228.879 23.0712 228.642 23.24L63.2455 118.788C62.5929 119.219 62.0511 119.799 61.664 120.479C61.2769 121.159 61.0553 121.92 61.0173 122.702V236.098C60.9941 236.481 61.0701 236.863 61.238 237.208C61.4058 237.553 61.6598 237.849 61.9754 238.066C62.3394 238.267 64.2854 239.396 64.8647 239.708C65.0697 239.812 65.2987 239.86 65.5284 239.847C65.758 239.834 65.9801 239.761 66.172 239.634L231.531 144.086C232.184 143.654 232.725 143.075 233.113 142.395C233.5 141.715 233.721 140.953 233.759 140.172V26.1887C233.792 25.9007 233.745 25.6091 233.621 25.3467C233.498 25.0843 233.304 24.8615 233.061 24.7032C232.69 24.4581 230.707 23.3588 230.291 23.1137Z" fill="#59114D"/>
<path d="M66.1351 120.392L231.539 24.8818C232.787 24.139 233.767 24.7481 233.767 26.189V140.172C233.729 140.953 233.507 141.715 233.12 142.395C232.733 143.075 232.191 143.654 231.539 144.086L66.1351 239.634C64.8872 240.377 63.9068 239.181 63.9068 237.74V124.307C63.946 123.525 64.1681 122.764 64.5551 122.084C64.9421 121.404 65.4833 120.825 66.1351 120.392V120.392Z" fill="#FAFAFA"/>
<path d="M232.549 25.3126C232.987 25.3126 233.054 25.8622 233.054 26.189V140.172C233.014 140.826 232.822 141.462 232.493 142.03C232.164 142.597 231.708 143.08 231.16 143.44L65.7785 238.988C65.6675 239.06 65.5393 239.101 65.4072 239.107C64.9912 239.107 64.6644 238.468 64.6644 237.74V124.307C64.7003 123.652 64.8864 123.015 65.2085 122.445C65.5305 121.874 65.9797 121.385 66.5213 121.016L231.91 25.5205C232.101 25.3971 232.321 25.3254 232.549 25.3126M232.549 24.5698C232.191 24.5851 231.843 24.6925 231.539 24.8818L66.1351 120.392C65.4833 120.825 64.9421 121.404 64.5551 122.084C64.1681 122.764 63.946 123.525 63.9068 124.307V237.74C63.9068 238.884 64.5456 239.849 65.3923 239.849C65.6546 239.844 65.9108 239.77 66.1351 239.634L231.531 144.086C232.184 143.654 232.726 143.075 233.113 142.395C233.5 141.715 233.721 140.953 233.76 140.172V26.189C233.76 25.164 233.254 24.5698 232.512 24.5698H232.549Z" fill="#E0E0E0"/>
<path d="M61.9309 238.067C62.176 238.193 63.9364 239.196 64.7088 239.641C64.4314 239.411 64.2118 239.12 64.0673 238.789C63.9229 238.459 63.8577 238.1 63.8769 237.74V131.712L60.9802 130.019V236.099C60.9562 236.481 61.0311 236.862 61.1976 237.207C61.3642 237.552 61.6167 237.848 61.9309 238.067V238.067Z" fill="#F0F0F0"/>
<path d="M233.797 26.1667C233.797 24.7406 232.779 24.1612 231.568 24.8817L66.1351 120.392C65.4833 120.825 64.9421 121.404 64.5551 122.084C64.1681 122.764 63.946 123.525 63.9068 124.307V131.734L233.797 33.5942V26.1667Z" fill="#59114D"/>
<g opacity="0.4">
<path d="M231.539 24.882L66.135 120.385C65.4712 120.804 64.9243 121.384 64.5455 122.071L61.6711 120.4C62.0492 119.737 62.5914 119.182 63.2457 118.788L228.642 23.2405C228.879 23.0705 229.157 22.9683 229.448 22.9447C229.738 22.9211 230.03 22.9772 230.291 23.1068C230.692 23.3593 232.571 24.4214 233.054 24.6814C232.804 24.5888 232.535 24.5587 232.271 24.5936C232.007 24.6286 231.756 24.7275 231.539 24.882V24.882Z" fill="white"/>
</g>
<path opacity="0.15" d="M60.9801 130.026V122.665C61.0106 121.863 61.2486 121.083 61.6709 120.4L64.5527 122.064C64.1365 122.735 63.9035 123.503 63.8768 124.292V131.719L60.9801 130.026Z" fill="black"/>
<path d="M198.917 111.673L99.8557 168.865C99.374 169.177 98.9729 169.599 98.6851 170.096C98.3973 170.593 98.2308 171.151 98.1994 171.724V200.127C98.2308 200.7 98.3973 201.258 98.6851 201.755C98.9729 202.252 99.374 202.674 99.8557 202.987L102.745 204.65C103.259 204.91 103.826 205.046 104.401 205.046C104.977 205.046 105.544 204.91 106.058 204.65L205.104 147.458C205.586 147.144 205.987 146.721 206.275 146.223C206.562 145.725 206.729 145.166 206.76 144.591V116.181C206.729 115.608 206.562 115.05 206.274 114.553C205.987 114.056 205.586 113.634 205.104 113.322L202.207 111.658C201.696 111.402 201.132 111.27 200.56 111.273C199.989 111.276 199.426 111.412 198.917 111.673Z" fill="#59114D"/>
<path opacity="0.5" d="M206.76 115.929C206.642 115.074 205.951 114.763 205.119 115.245L106.058 172.437C105.569 172.741 105.168 173.166 104.892 173.67L98.6899 170.09C98.9679 169.593 99.3663 169.175 99.8486 168.872L198.917 111.68C199.429 111.42 199.995 111.284 200.57 111.284C201.144 111.284 201.71 111.42 202.222 111.68L205.119 113.344C205.561 113.633 205.935 114.014 206.218 114.459C206.502 114.905 206.686 115.406 206.76 115.929Z" fill="white"/>
<path d="M105.775 204.791C105.29 204.982 104.771 205.069 104.25 205.046C103.729 205.023 103.219 204.891 102.752 204.658L99.8557 202.994C99.3748 202.68 98.9744 202.258 98.6866 201.761C98.3989 201.265 98.232 200.707 98.1994 200.134V171.731C98.2217 171.152 98.3904 170.587 98.6896 170.09L104.892 173.67C104.59 174.161 104.421 174.721 104.401 175.297V203.707C104.401 204.65 104.996 205.088 105.775 204.791Z" fill="#455A64"/>
<path d="M106.058 172.437L205.119 115.245C206.032 114.717 206.775 115.141 206.775 116.196V144.606C206.744 145.18 206.577 145.739 206.289 146.237C206.002 146.735 205.601 147.159 205.119 147.473L106.073 204.665C105.159 205.192 104.416 204.761 104.416 203.707V175.304C104.446 174.731 104.61 174.173 104.895 173.675C105.18 173.177 105.579 172.753 106.058 172.437V172.437Z" fill="#59114D"/>
<path d="M172.653 126.839L99.8633 168.872C99.3811 169.174 98.9826 169.593 98.7047 170.09L104.907 173.67C105.183 173.165 105.584 172.741 106.073 172.437L178.863 130.412L172.653 126.839Z" fill="#455A64"/>
<path d="M178.848 130.412L106.058 172.437C105.576 172.751 105.175 173.174 104.887 173.672C104.599 174.17 104.433 174.729 104.402 175.304V203.699C104.402 204.754 105.144 205.185 106.058 204.657L178.848 162.632V130.412Z" fill="#37474F"/>
<path d="M122.844 168.976L160.405 147.295C161.958 146.396 163.22 147.035 163.22 148.721C163.151 149.668 162.859 150.585 162.369 151.398C161.878 152.211 161.203 152.897 160.398 153.4L122.844 175.089C121.292 175.987 120.022 175.349 120.022 173.663C120.092 172.715 120.384 171.797 120.874 170.983C121.364 170.169 122.039 169.481 122.844 168.976V168.976Z" fill="#59114D"/>
<path d="M196.406 145.081L189.194 149.241L190.316 139.124C189.447 138.664 188.897 137.542 188.897 135.931C188.897 133.056 190.65 129.721 192.804 128.503C194.958 127.285 196.703 128.577 196.703 131.474C196.659 133.178 196.172 134.842 195.292 136.302L196.406 145.081Z" fill="#455A64"/>
<path d="M135.076 173.709C135.337 173.547 135.627 173.437 135.93 173.386C136.139 173.353 136.354 173.381 136.548 173.465C136.708 173.541 136.839 173.667 136.921 173.824C137.005 173.982 137.054 174.156 137.065 174.334C137.067 174.412 137.047 174.489 137.008 174.557C136.975 174.62 136.925 174.672 136.864 174.708L136.361 175.002C136.275 175.052 136.218 175.067 136.174 175.045C136.127 175.026 136.089 174.99 136.067 174.945C136.03 174.886 135.982 174.835 135.926 174.795C135.869 174.756 135.804 174.728 135.736 174.715C135.499 174.701 135.265 174.772 135.076 174.916C134.949 174.989 134.831 175.076 134.724 175.174C134.612 175.271 134.511 175.38 134.422 175.497C134.34 175.607 134.274 175.728 134.228 175.857C134.179 175.975 134.152 176.102 134.149 176.23C134.143 176.342 134.168 176.454 134.221 176.553C134.248 176.588 134.283 176.616 134.323 176.635C134.363 176.653 134.407 176.662 134.451 176.661C134.597 176.659 134.742 176.637 134.882 176.596C135.061 176.553 135.284 176.496 135.55 176.417C135.783 176.342 136.024 176.296 136.268 176.28C136.447 176.266 136.626 176.303 136.785 176.388C136.923 176.475 137.026 176.607 137.079 176.761C137.152 176.969 137.186 177.188 137.18 177.408C137.177 177.71 137.129 178.01 137.036 178.298C136.934 178.607 136.794 178.901 136.62 179.174C136.433 179.464 136.214 179.732 135.966 179.972C135.703 180.228 135.409 180.45 135.09 180.632C134.85 180.778 134.588 180.885 134.314 180.948C134.097 181.002 133.871 181.002 133.654 180.948C133.468 180.892 133.307 180.776 133.194 180.618C133.069 180.42 133.001 180.191 133 179.957C132.999 179.881 133.019 179.807 133.058 179.742C133.09 179.679 133.136 179.624 133.194 179.584L133.704 179.289C133.759 179.253 133.825 179.236 133.891 179.239C133.916 179.249 133.939 179.265 133.957 179.285C133.976 179.304 133.99 179.328 133.998 179.354C134.035 179.417 134.076 179.477 134.121 179.534C134.172 179.593 134.244 179.631 134.322 179.641C134.421 179.663 134.524 179.663 134.623 179.641C134.787 179.592 134.944 179.522 135.09 179.433C135.237 179.349 135.376 179.253 135.507 179.146C135.638 179.046 135.756 178.93 135.858 178.801C135.959 178.681 136.043 178.548 136.11 178.406C136.169 178.272 136.201 178.128 136.203 177.982C136.21 177.93 136.204 177.877 136.186 177.827C136.169 177.777 136.14 177.732 136.103 177.695C136.057 177.666 136.007 177.645 135.954 177.636C135.901 177.626 135.847 177.626 135.794 177.638C135.621 177.659 135.451 177.695 135.284 177.745C135.076 177.81 134.846 177.867 134.566 177.932C134.36 177.99 134.148 178.022 133.934 178.025C133.773 178.025 133.616 177.978 133.481 177.889C133.357 177.789 133.267 177.654 133.223 177.501C133.151 177.269 133.119 177.026 133.129 176.783C133.132 176.482 133.183 176.184 133.28 175.9C133.373 175.598 133.506 175.311 133.675 175.045C133.847 174.769 134.049 174.514 134.279 174.284C134.518 174.058 134.786 173.865 135.076 173.709V173.709Z" fill="#FAFAFA"/>
<path d="M138.752 171.584C138.772 171.57 138.796 171.563 138.82 171.563C138.845 171.563 138.869 171.57 138.889 171.584C138.909 171.603 138.925 171.627 138.935 171.653C138.944 171.679 138.948 171.707 138.946 171.735V172.496C138.944 172.571 138.924 172.645 138.889 172.711C138.857 172.774 138.81 172.829 138.752 172.869L138.127 173.228C138.108 173.243 138.084 173.251 138.059 173.251C138.035 173.251 138.011 173.243 137.991 173.228C137.969 173.21 137.953 173.187 137.943 173.16C137.933 173.134 137.929 173.106 137.934 173.078V172.359C137.933 172.281 137.953 172.205 137.991 172.137C138.019 172.073 138.067 172.02 138.127 171.986L138.752 171.584ZM138.91 178.09C138.908 178.166 138.889 178.239 138.853 178.306C138.818 178.369 138.769 178.424 138.709 178.464L138.163 178.78C138.144 178.794 138.12 178.802 138.095 178.802C138.071 178.802 138.047 178.794 138.027 178.78C138.005 178.762 137.989 178.738 137.978 178.712C137.968 178.685 137.965 178.657 137.969 178.629V174.133C137.968 174.057 137.988 173.983 138.027 173.918C138.054 173.852 138.102 173.796 138.163 173.76L138.709 173.444C138.73 173.43 138.755 173.422 138.781 173.422C138.807 173.422 138.832 173.43 138.853 173.444C138.873 173.463 138.888 173.487 138.898 173.513C138.908 173.539 138.912 173.567 138.91 173.595V178.09Z" fill="#FAFAFA"/>
<path d="M141.554 177.789C141.667 177.721 141.771 177.639 141.862 177.544C141.975 177.436 142.071 177.313 142.15 177.178C142.24 177.032 142.312 176.875 142.365 176.711C142.423 176.54 142.452 176.361 142.451 176.18V175.821L142.293 176.101C142.227 176.212 142.153 176.317 142.071 176.417C141.973 176.532 141.867 176.64 141.755 176.74C141.632 176.853 141.497 176.952 141.352 177.034C141.158 177.16 140.93 177.225 140.699 177.221C140.512 177.217 140.334 177.139 140.203 177.006C140.051 176.858 139.938 176.676 139.873 176.474C139.791 176.224 139.747 175.962 139.744 175.699C139.744 175.605 139.744 175.49 139.744 175.361C139.744 175.232 139.744 175.117 139.744 175.024C139.753 174.709 139.796 174.396 139.873 174.09C139.952 173.776 140.062 173.47 140.203 173.178C140.336 172.896 140.502 172.63 140.699 172.388C140.881 172.161 141.102 171.969 141.352 171.821C141.478 171.746 141.613 171.688 141.755 171.648C141.857 171.62 141.964 171.608 142.071 171.612C142.148 171.614 142.224 171.634 142.293 171.67C142.35 171.696 142.404 171.73 142.451 171.77V171.548C142.45 171.472 142.47 171.397 142.509 171.332C142.534 171.265 142.582 171.209 142.645 171.174L143.191 170.858C143.212 170.843 143.237 170.835 143.263 170.835C143.289 170.835 143.314 170.843 143.335 170.858C143.355 170.878 143.37 170.901 143.38 170.927C143.39 170.953 143.394 170.981 143.392 171.009V175.534C143.408 176.246 143.24 176.951 142.904 177.58C142.587 178.152 142.12 178.626 141.554 178.952C141.333 179.084 141.089 179.174 140.835 179.218C140.653 179.254 140.465 179.242 140.29 179.182C140.141 179.133 140.012 179.037 139.923 178.909C139.827 178.767 139.774 178.599 139.772 178.428C139.767 178.352 139.784 178.277 139.823 178.212C139.857 178.149 139.906 178.094 139.966 178.054L140.455 177.774C140.481 177.755 140.512 177.745 140.545 177.745C140.577 177.745 140.608 177.755 140.634 177.774L140.756 177.868C140.789 177.905 140.828 177.935 140.873 177.956C140.917 177.977 140.966 177.988 141.015 177.99C141.209 177.97 141.394 177.901 141.554 177.789V177.789ZM140.685 174.542C140.67 174.724 140.67 174.907 140.685 175.088C140.685 175.49 140.807 175.735 140.972 175.806C141.07 175.848 141.177 175.863 141.283 175.851C141.389 175.838 141.49 175.798 141.575 175.735C141.825 175.582 142.031 175.367 142.171 175.11C142.334 174.813 142.429 174.485 142.451 174.147C142.451 174.047 142.451 173.918 142.451 173.774C142.451 173.63 142.451 173.508 142.451 173.415C142.456 173.295 142.433 173.176 142.385 173.066C142.336 172.957 142.263 172.86 142.171 172.783C142.077 172.735 141.97 172.715 141.865 172.725C141.759 172.736 141.659 172.775 141.575 172.84C141.325 172.992 141.117 173.204 140.972 173.458C140.792 173.792 140.694 174.163 140.685 174.542V174.542Z" fill="#FAFAFA"/>
<path d="M147.916 172.883C147.918 172.959 147.898 173.034 147.859 173.099C147.834 173.166 147.785 173.222 147.722 173.257L147.177 173.573C147.119 173.608 147.076 173.608 147.04 173.573C147.018 173.554 147.002 173.531 146.992 173.505C146.982 173.478 146.978 173.45 146.983 173.422V170.973C147.01 170.686 146.937 170.399 146.774 170.161C146.638 170.003 146.437 170.011 146.157 170.161C145.883 170.331 145.67 170.582 145.546 170.879C145.399 171.212 145.326 171.572 145.331 171.935V174.384C145.328 174.462 145.308 174.538 145.273 174.607C145.241 174.67 145.191 174.722 145.13 174.758L144.584 175.081C144.564 175.095 144.54 175.103 144.516 175.103C144.491 175.103 144.467 175.095 144.448 175.081C144.426 175.063 144.409 175.039 144.399 175.013C144.389 174.986 144.386 174.958 144.39 174.93V170.434C144.389 170.358 144.408 170.284 144.448 170.219C144.475 170.153 144.523 170.097 144.584 170.061L145.13 169.745C145.151 169.73 145.176 169.721 145.202 169.721C145.227 169.721 145.253 169.73 145.273 169.745C145.294 169.764 145.309 169.788 145.319 169.814C145.329 169.84 145.333 169.868 145.331 169.896V170.118C145.455 169.882 145.602 169.658 145.769 169.45C145.937 169.245 146.141 169.072 146.372 168.94C146.585 168.796 146.833 168.712 147.09 168.696C147.18 168.697 147.269 168.716 147.35 168.754C147.432 168.791 147.505 168.845 147.564 168.912C147.701 169.076 147.79 169.275 147.823 169.486C147.874 169.756 147.898 170.03 147.895 170.305L147.916 172.883Z" fill="#FAFAFA"/>
<path d="M151.335 164.33C151.354 164.315 151.378 164.308 151.403 164.308C151.427 164.308 151.451 164.315 151.471 164.33C151.493 164.348 151.509 164.372 151.519 164.398C151.53 164.424 151.533 164.453 151.529 164.481V165.235C151.53 165.311 151.51 165.385 151.471 165.45C151.442 165.515 151.394 165.57 151.335 165.608L150.717 165.967C150.696 165.982 150.671 165.989 150.645 165.989C150.62 165.989 150.595 165.982 150.573 165.967C150.553 165.948 150.537 165.925 150.527 165.899C150.518 165.872 150.514 165.844 150.516 165.817V165.063C150.519 164.987 150.539 164.914 150.573 164.847C150.608 164.784 150.657 164.729 150.717 164.689L151.335 164.33ZM151.493 170.829C151.493 170.907 151.473 170.984 151.435 171.052C151.408 171.116 151.36 171.169 151.299 171.203L150.753 171.526C150.733 171.541 150.709 171.548 150.685 171.548C150.66 171.548 150.636 171.541 150.616 171.526C150.593 171.509 150.575 171.486 150.564 171.459C150.553 171.433 150.549 171.404 150.552 171.375V166.88C150.553 166.803 150.576 166.729 150.616 166.664C150.642 166.597 150.69 166.541 150.753 166.506L151.299 166.19C151.356 166.154 151.399 166.154 151.435 166.19C151.457 166.208 151.473 166.232 151.484 166.258C151.494 166.284 151.497 166.313 151.493 166.341V170.829Z" fill="#FAFAFA"/>
<path d="M156.003 168.187C156.004 168.263 155.984 168.337 155.945 168.402C155.92 168.469 155.872 168.526 155.809 168.56L155.263 168.876C155.242 168.891 155.217 168.9 155.191 168.9C155.165 168.9 155.14 168.891 155.119 168.876C155.099 168.857 155.083 168.833 155.073 168.807C155.064 168.781 155.06 168.753 155.062 168.725V166.269C155.091 165.986 155.02 165.701 154.861 165.465C154.724 165.307 154.523 165.314 154.243 165.465C153.969 165.635 153.756 165.886 153.633 166.183C153.486 166.515 153.412 166.876 153.417 167.239V169.688C153.414 169.765 153.395 169.841 153.36 169.91C153.328 169.974 153.278 170.026 153.216 170.061L152.67 170.384C152.651 170.399 152.627 170.407 152.602 170.407C152.578 170.407 152.554 170.399 152.534 170.384C152.512 170.366 152.496 170.343 152.486 170.316C152.475 170.29 152.472 170.262 152.476 170.234V165.738C152.475 165.662 152.495 165.587 152.534 165.522C152.559 165.455 152.608 165.399 152.67 165.364L153.216 165.049C153.237 165.033 153.262 165.025 153.288 165.025C153.314 165.025 153.339 165.033 153.36 165.049C153.38 165.068 153.396 165.091 153.406 165.117C153.416 165.143 153.42 165.171 153.417 165.199V165.422C153.541 165.186 153.688 164.962 153.855 164.754C154.023 164.548 154.228 164.376 154.459 164.244C154.672 164.1 154.92 164.016 155.177 164C155.266 164.001 155.355 164.02 155.437 164.057C155.518 164.094 155.591 164.148 155.651 164.215C155.786 164.378 155.875 164.574 155.909 164.783C155.961 165.055 155.985 165.332 155.981 165.609L156.003 168.187Z" fill="#FAFAFA"/>
<path d="M196.414 145.082L190.063 141.42L189.194 149.249L196.414 145.082Z" fill="#37474F"/>
<path d="M192.789 128.481C191.218 129.542 190.047 131.097 189.461 132.9L195.277 136.257C196.158 134.797 196.644 133.134 196.688 131.429C196.703 128.555 194.958 127.24 192.789 128.481Z" fill="#37474F"/>
<path d="M157.731 94.7974C155.258 93.3713 151.849 93.5719 148.075 95.7481C140.544 100.101 134.438 110.67 134.438 119.368C134.438 123.735 135.983 126.795 138.464 128.206L143.27 130.999C145.736 132.425 149.145 132.217 152.926 130.041C160.457 125.696 166.562 115.119 166.562 106.421C166.562 102.076 165.032 98.994 162.566 97.605" fill="#59114D"/>
<path d="M152.918 98.5483C145.387 102.901 139.281 113.478 139.281 122.168C139.281 130.858 145.387 134.394 152.918 130.041C160.45 125.688 166.562 115.119 166.555 106.421C166.548 97.7239 160.442 94.2032 152.918 98.5483Z" fill="#59114D"/>
<path d="M160.442 117.845V118.841C158.638 122.061 156.05 124.774 152.918 126.729C149.984 128.415 147.333 128.6 145.387 127.523V125.473C145.486 123.34 146.095 121.263 147.163 119.413C148.23 117.564 149.725 115.998 151.522 114.845L153.505 113.701C155.258 112.691 156.966 112.557 158.303 113.337C159.64 114.117 160.442 115.758 160.442 117.845Z" fill="#59114D"/>
<path opacity="0.4" d="M157.731 94.7971L162.559 97.6047C160.093 96.1712 156.684 96.3717 152.903 98.548C147.971 101.4 143.648 106.919 141.257 112.831L136.421 110.031C138.821 104.089 143.106 98.6 148.068 95.7478C151.856 93.579 155.265 93.371 157.731 94.7971Z" fill="white"/>
<path opacity="0.2" d="M143.099 130.887L138.472 128.206C135.991 126.795 134.446 123.749 134.446 119.367L139.281 122.175C139.311 126.408 140.737 129.424 143.099 130.887Z" fill="black"/>
<path opacity="0.1" d="M136.436 110.031L141.272 112.831C140.033 115.791 139.367 118.959 139.311 122.167V122.167L134.475 119.36C134.535 116.154 135.2 112.989 136.436 110.031Z" fill="black"/>
<path d="M151.195 113.232C150.734 113.237 150.28 113.119 149.88 112.89C149.398 112.569 149.012 112.123 148.762 111.6C148.512 111.077 148.409 110.497 148.462 109.919C148.525 108.566 148.911 107.248 149.588 106.074C150.265 104.901 151.214 103.907 152.354 103.175V103.175C152.812 102.81 153.369 102.591 153.954 102.547C154.538 102.504 155.122 102.637 155.629 102.931C156.137 103.225 156.543 103.665 156.796 104.193C157.049 104.722 157.137 105.314 157.048 105.894C156.984 107.247 156.597 108.565 155.92 109.738C155.243 110.911 154.295 111.905 153.156 112.638C152.566 113.006 151.89 113.211 151.195 113.232V113.232Z" fill="white"/>
<path d="M158.303 113.329C156.966 112.549 155.258 112.683 153.505 113.693L151.522 114.837C149.724 115.99 148.229 117.558 147.161 119.409C146.094 121.259 145.485 123.339 145.387 125.473V127.53C147.333 128.607 149.984 128.422 152.918 126.736C156.05 124.781 158.638 122.068 160.442 118.848V117.852C160.442 115.758 159.67 114.116 158.303 113.329Z" fill="white"/>
<path d="M310.998 241.825C310.998 241.825 311.986 233.149 316.301 226.413C320.617 219.676 326.544 215.479 332.078 215.041C337.611 214.603 342.082 219.698 336.163 223.211C330.243 226.725 319.726 230.275 314.883 243.347L310.998 241.825Z" fill="#59114D"/>
<path opacity="0.1" d="M310.998 241.825C310.998 241.825 311.986 233.149 316.301 226.413C320.617 219.676 326.544 215.479 332.078 215.041C337.611 214.603 342.082 219.698 336.163 223.211C330.243 226.725 319.726 230.275 314.883 243.347L310.998 241.825Z" fill="black"/>
<path d="M312.625 239.567H312.565C312.492 239.537 312.434 239.48 312.404 239.408C312.373 239.335 312.372 239.254 312.402 239.181C318.24 224.808 329.351 218.8 334.417 217.641C334.455 217.632 334.494 217.631 334.533 217.637C334.571 217.644 334.608 217.658 334.641 217.678C334.675 217.699 334.703 217.726 334.726 217.758C334.749 217.79 334.765 217.826 334.774 217.864C334.782 217.902 334.784 217.941 334.777 217.98C334.771 218.018 334.757 218.055 334.736 218.088C334.715 218.121 334.688 218.15 334.656 218.173C334.625 218.195 334.589 218.211 334.551 218.22C329.589 219.364 318.693 225.262 312.951 239.411C312.923 239.47 312.875 239.518 312.815 239.546C312.756 239.575 312.689 239.582 312.625 239.567V239.567Z" fill="white"/>
<path d="M342.172 239.738C341.674 240.867 340.441 241.461 339.297 241.922C338.153 242.382 336.905 242.88 336.282 243.949C335.034 246.103 337.084 249.149 335.747 251.236C335.432 251.656 335.036 252.008 334.581 252.271C334.127 252.534 333.624 252.702 333.103 252.766C332.248 252.922 331.379 252.922 330.518 252.996C330.105 252.991 329.693 252.958 329.285 252.899C328.085 252.632 326.83 252.765 325.712 253.278C323.996 254.244 323.484 256.405 322.429 258.076C321.785 259.06 320.936 259.894 319.94 260.519C318.944 261.145 317.824 261.548 316.658 261.701C315.915 261.798 314.43 261.939 313.687 261.501C313.629 261.472 313.574 261.437 313.524 261.397V261.397C313.412 261.278 313.279 261.122 313.219 261.04C313.215 261.023 313.215 261.005 313.219 260.988C312.915 259.866 313.412 258.708 313.434 257.549V257.341C313.382 255.997 313.345 254.66 313.316 253.323C313.251 250.847 313.227 248.371 313.241 245.895C313.241 244.291 313.063 242.538 313.746 241.03C314.489 239.366 316.361 239.329 317.067 237.703C317.349 237.049 317.497 236.358 317.772 235.697C318.197 234.736 318.877 233.91 319.739 233.309C320.601 232.708 321.611 232.355 322.659 232.288C325.92 232.125 328.839 234.761 332.1 234.516C332.939 234.449 333.764 234.19 334.596 234.041C337.232 233.543 340.285 234.293 341.771 236.529C342.097 236.99 342.304 237.523 342.374 238.083C342.444 238.643 342.374 239.211 342.172 239.738V239.738Z" fill="#59114D"/>
<path d="M312.892 255.841C312.822 255.82 312.762 255.773 312.726 255.709C312.69 255.645 312.68 255.57 312.699 255.499C317.2 238.609 334.981 236.188 339.163 236.47C339.2 236.472 339.236 236.481 339.269 236.497C339.302 236.513 339.332 236.536 339.356 236.563C339.38 236.591 339.399 236.623 339.41 236.658C339.422 236.693 339.426 236.73 339.423 236.767C339.416 236.839 339.38 236.906 339.325 236.953C339.27 237 339.198 237.024 339.126 237.02C335.048 236.73 317.638 239.114 313.234 255.648C313.213 255.718 313.166 255.777 313.102 255.813C313.038 255.849 312.963 255.859 312.892 255.841V255.841Z" fill="white"/>
<path d="M332.672 247.284C332.615 247.276 332.563 247.25 332.523 247.21C330.879 245.785 328.941 244.741 326.847 244.151C324.753 243.562 322.554 243.442 320.409 243.8C320.336 243.807 320.264 243.786 320.206 243.742C320.149 243.698 320.109 243.634 320.097 243.563C320.086 243.49 320.104 243.416 320.147 243.356C320.19 243.297 320.255 243.256 320.327 243.243C322.565 242.871 324.857 242.998 327.04 243.616C329.223 244.233 331.243 245.326 332.954 246.816C332.98 246.842 333.001 246.872 333.015 246.906C333.029 246.94 333.037 246.976 333.037 247.013C333.037 247.05 333.029 247.086 333.015 247.12C333.001 247.154 332.98 247.184 332.954 247.21C332.92 247.25 332.875 247.278 332.825 247.292C332.774 247.305 332.72 247.302 332.672 247.284Z" fill="white"/>
<path d="M285.165 146.441C282.046 151.714 279.045 156.297 276.935 158.496C272.932 160.353 263.529 163.22 259.852 163.695C259.206 163.777 258.552 163.624 258.01 163.264C256.562 162.313 255.44 162.157 253.918 161.63C252.722 161.222 252.217 160.65 251.994 160.887C251.764 161.157 251.648 161.506 251.672 161.86C251.695 162.214 251.856 162.544 252.12 162.781C252.691 163.324 253.325 163.798 254.007 164.193C252.376 164.597 250.675 164.628 249.03 164.282C245.844 163.442 244.343 164.972 246.497 168.434C247.24 169.667 250.3 171.65 256.45 171.115C258.644 170.997 260.829 170.749 262.994 170.372C268.891 169.11 275.45 167.891 279.483 166.658C280.983 166.069 282.326 165.138 283.405 163.94C290.186 156.208 292.437 150.697 295.408 145.691L295.155 137.52C290.342 137.357 287.772 142.029 285.165 146.441Z" fill="#FFA8A7"/>
<path d="M295.98 137.357C294.584 137.161 293.161 137.35 291.865 137.904C290.569 138.457 289.449 139.355 288.627 140.499C285.329 144.725 279.491 154.871 279.491 154.871C279.491 154.871 281.4 159.959 286.554 160.813L294.836 149.627C294.836 149.627 298.758 141.858 295.98 137.357Z" fill="#455A64"/>
<path d="M313.887 251.399H308.488V261.025H313.887V251.399Z" fill="#FFA8A7"/>
<path d="M295.17 250.886L289.778 251.079L289.503 240.889L295.17 240.696V250.886Z" fill="#FFA8A7"/>
<path d="M314.645 168.069C314.645 173.432 313.858 216.638 313.858 216.638C313.977 218.183 315.343 221.035 315.069 226.97C314.66 235.029 314.118 256.212 314.118 256.212C313.191 256.686 312.168 256.944 311.127 256.964C310.086 256.985 309.054 256.768 308.109 256.331C308.109 256.331 303.727 226.621 302.761 218.666C301.914 211.691 299.746 188.607 299.746 188.607L296.827 215.895C297.445 218.823 297.67 221.821 297.495 224.808C297.243 228.522 295.505 247.745 295.505 247.745C294.572 248.295 293.526 248.626 292.446 248.712C291.366 248.798 290.281 248.638 289.273 248.242C289.273 248.242 286.198 219.275 286.138 215.873C286.064 212.011 287.936 168.025 287.936 168.025L314.645 168.069Z" fill="#37474F"/>
<path d="M308.487 258.247V257.445C307.968 257.675 306.772 262.444 304.625 264.479C302.924 266.098 300.607 267.962 300.013 269.767C299.418 271.572 303.244 272.679 304.841 272.389C306.683 272.047 309.891 270.688 310.693 269.418C311.496 268.148 311.874 266.306 312.528 265.385C313.182 264.464 314.689 263.439 315.039 262.369C315.147 261.369 315.044 260.356 314.734 259.398C314.482 258.403 314.214 257.311 313.887 257.408V258.017C313.126 258.642 312.169 258.978 311.184 258.968C310.396 259.034 308.48 258.871 308.487 258.247Z" fill="#455A64"/>
<path d="M289.718 249.342C289.436 249.342 289.206 249.765 288.589 250.464C287.673 251.428 286.601 252.231 285.418 252.84C283.398 253.895 279.476 255.514 277.686 256.354C276.572 256.874 276.624 258.27 277.775 259.065C278.926 259.859 281.697 260.431 285.024 259.659C286.837 259.235 289.199 257.49 290.699 257.587C292.199 257.683 294.985 257.653 296.091 256.844C297.198 256.034 296.752 254.356 296.44 252.907C296.099 251.318 295.698 248.844 295.17 248.956V249.513C294.524 250.538 291.174 250.954 289.748 250.204L289.718 249.342Z" fill="#455A64"/>
<path d="M299.746 188.606C296.937 187.687 294.369 186.152 292.229 184.113C292.229 184.113 293.715 186.943 297.993 189.579L297.072 213.949L299.746 188.606Z" fill="#455A64"/>
<path d="M311.63 138.144C311.63 138.144 316.086 139.169 315.767 147.22L314.839 160.033V179.27C310.872 183.771 293.299 183.444 287.245 178.914C287.245 178.914 287.929 156.148 288.337 147.384C288.627 141.16 290.06 138.025 296.181 137.342L303.705 137.669L311.63 138.144Z" fill="#59114D"/>
<path d="M305.955 121.417C305.981 122.495 305.793 123.567 305.402 124.572C305.011 125.577 304.426 126.495 303.678 127.272C302.931 128.05 302.038 128.672 301.049 129.102C300.061 129.533 298.997 129.763 297.919 129.781C293.462 129.781 290.848 125.933 289.882 121.417C288.099 113.15 293.477 113.046 297.919 113.046C300.094 113.091 302.163 113.998 303.67 115.568C305.177 117.138 305.999 119.242 305.955 121.417V121.417Z" fill="#455A64"/>
<path d="M310.055 124.797C310.055 124.797 308.822 130.828 308.324 131.823C308.011 132.422 307.479 132.877 306.839 133.093L306.928 128.852L310.055 124.797Z" fill="#455A64"/>
<path d="M308.503 116.159C308.503 116.159 309.387 115.936 310.33 117.406C311.132 118.662 311.318 121.484 310.055 124.834L307.73 125.116L308.503 116.159Z" fill="#455A64"/>
<path d="M309.357 117.384L312.209 117.436C312.229 117.252 312.21 117.065 312.154 116.889C312.098 116.712 312.006 116.549 311.884 116.409C311.762 116.27 311.612 116.157 311.445 116.078C311.277 115.999 311.095 115.956 310.909 115.951C310.519 115.956 310.145 116.106 309.859 116.37C309.572 116.635 309.394 116.996 309.357 117.384Z" fill="#455A64"/>
<path d="M309.706 116.708L311.815 114.68C311.694 114.537 311.544 114.42 311.375 114.338C311.206 114.256 311.022 114.209 310.834 114.201C310.646 114.194 310.459 114.225 310.284 114.293C310.109 114.362 309.95 114.466 309.817 114.599C309.538 114.872 309.371 115.241 309.35 115.632C309.33 116.022 309.457 116.406 309.706 116.708V116.708Z" fill="#455A64"/>
<path d="M307.032 125.079C307.5 125.369 308.161 124.44 308.74 123.809C309.32 123.177 311.117 122.598 312.053 124.648C312.989 126.698 311.392 128.726 310.055 129.394C307.656 130.583 306.898 128.852 306.898 128.852L306.698 138.404C303.326 143.603 295.675 143.44 298.431 138.151V135.247C297.297 135.436 296.146 135.495 294.999 135.425C293.128 135.128 291.954 133.591 291.382 131.481C290.476 128.094 290.127 125.361 290.899 118.699C291.746 111.405 299.902 111.323 304.269 114.242C308.636 117.161 307.032 125.079 307.032 125.079Z" fill="#FFA8A7"/>
<path d="M296.871 117.562C298.817 117.369 300.741 116.968 302.694 116.82C303.115 116.769 303.542 116.789 303.957 116.879C305.442 117.288 305.264 119.026 305.502 120.236C305.91 122.331 306.245 125.874 307.032 125.889C307.27 125.889 308.161 124.351 308.74 123.802C309.059 123.328 309.239 122.775 309.26 122.205C309.409 121.343 309.483 120.459 309.55 119.583C309.609 118.84 309.683 118.097 309.683 117.354C309.717 116.515 309.65 115.675 309.483 114.851C309.297 114.151 308.939 113.508 308.443 112.98L308.295 112.816C307.315 111.793 306.127 110.992 304.811 110.469C302.917 109.76 300.931 109.327 298.914 109.184C296.899 109.041 294.893 108.794 292.905 108.441C292.791 108.408 292.67 108.408 292.556 108.441C292.475 108.486 292.407 108.55 292.358 108.628C292.308 108.706 292.279 108.795 292.273 108.887C292.192 109.349 292.243 109.824 292.42 110.258C292.598 110.691 292.894 111.066 293.276 111.338C291.932 111.442 290.387 110.744 289.094 110.387C288.99 110.343 288.877 110.32 288.764 110.32C288.65 110.32 288.538 110.343 288.433 110.387C288.304 110.478 288.211 110.613 288.173 110.766C288.079 111.115 288.067 111.481 288.136 111.836C288.254 112.911 288.654 113.936 289.295 114.807C290.296 116.11 291.71 117.035 293.306 117.429C294.48 117.655 295.683 117.7 296.871 117.562V117.562Z" fill="#455A64"/>
<path d="M298.439 135.247C298.439 135.247 302.613 134.371 304.069 133.561C304.936 133.087 305.64 132.362 306.089 131.481C305.87 132.366 305.478 133.199 304.938 133.933C303.875 135.359 298.439 136.398 298.439 136.398V135.247Z" fill="#F28F8F"/>
<path d="M299.441 123.987C299.433 124.216 299.516 124.44 299.672 124.608C299.828 124.776 300.044 124.876 300.273 124.886C300.455 124.901 300.637 124.861 300.796 124.77C300.955 124.68 301.082 124.544 301.162 124.379C301.242 124.215 301.27 124.031 301.244 123.85C301.217 123.67 301.136 123.501 301.012 123.367C300.888 123.233 300.727 123.14 300.549 123.099C300.371 123.059 300.185 123.073 300.015 123.14C299.845 123.207 299.699 123.324 299.597 123.475C299.495 123.626 299.44 123.805 299.441 123.987V123.987Z" fill="#455A64"/>
<path d="M300.778 120.385L302.568 121.418C302.698 121.163 302.728 120.869 302.651 120.593C302.574 120.318 302.396 120.082 302.152 119.932C302.034 119.865 301.902 119.824 301.767 119.811C301.631 119.798 301.495 119.813 301.365 119.856C301.236 119.899 301.117 119.968 301.016 120.059C300.915 120.15 300.834 120.261 300.778 120.385V120.385Z" fill="#455A64"/>
<path d="M298.81 130.011L296.901 130.753C296.939 130.884 297.004 131.006 297.092 131.111C297.179 131.216 297.287 131.301 297.409 131.363C297.531 131.424 297.664 131.46 297.8 131.467C297.936 131.475 298.073 131.454 298.201 131.407C298.461 131.295 298.668 131.089 298.781 130.829C298.894 130.57 298.904 130.277 298.81 130.011V130.011Z" fill="#F28F8F"/>
<path d="M291.761 121.15L293.395 119.843C293.322 119.729 293.225 119.632 293.112 119.557C292.999 119.483 292.871 119.433 292.737 119.411C292.603 119.39 292.466 119.396 292.335 119.431C292.204 119.466 292.082 119.528 291.976 119.613C291.758 119.798 291.615 120.057 291.576 120.34C291.536 120.624 291.602 120.912 291.761 121.15V121.15Z" fill="#455A64"/>
<path d="M292.482 123.742C292.495 123.905 292.555 124.06 292.654 124.189C292.754 124.318 292.889 124.415 293.043 124.468C293.197 124.522 293.364 124.529 293.522 124.489C293.68 124.45 293.823 124.365 293.934 124.246C294.045 124.126 294.118 123.977 294.146 123.816C294.173 123.655 294.153 123.49 294.088 123.34C294.023 123.191 293.916 123.064 293.78 122.974C293.643 122.884 293.484 122.836 293.321 122.836C293.206 122.84 293.093 122.866 292.989 122.914C292.884 122.962 292.79 123.03 292.712 123.114C292.634 123.198 292.574 123.297 292.534 123.405C292.495 123.513 292.477 123.627 292.482 123.742V123.742Z" fill="#455A64"/>
<path d="M296.961 123.044L296.864 128.325L293.863 127.642L296.961 123.044Z" fill="#F28F8F"/>
<path d="M225.7 167.275L230.357 164.586L232.2 162.35L227.55 165.039L225.7 167.275Z" fill="#59114D"/>
<path opacity="0.4" d="M225.7 167.275L230.357 164.586L232.2 162.35L227.55 165.039L225.7 167.275Z" fill="black"/>
<path d="M238.364 174.584L243.022 171.895L246.906 168.456L242.256 171.137L238.364 174.584Z" fill="#59114D"/>
<path opacity="0.4" d="M238.364 174.584L243.022 171.895L246.906 168.456L242.256 171.137L238.364 174.584Z" fill="black"/>
<path d="M277.923 183.86C279.025 185.336 279.691 187.091 279.847 188.926C278.751 187.447 278.085 185.694 277.923 183.86V183.86ZM288.745 184.001C287.178 173.343 281.451 162.803 274.633 158.859C271.357 156.965 268.327 156.898 265.898 158.317L261.516 160.842L261.271 160.991C261.076 161.098 260.887 161.217 260.706 161.347C260.346 161.595 260.008 161.873 259.696 162.179L259.548 162.32C259.414 162.454 259.273 162.61 259.147 162.758C259.02 162.907 258.827 163.137 258.679 163.338C258.363 163.753 258.078 164.19 257.824 164.645C257.691 164.875 257.564 165.12 257.446 165.388L219.172 143.298L214.522 145.98V148.951L214.916 149.174L215.287 149.389V149.983L214.544 150.421V152.145L220.167 164.029L225.723 167.245L227.572 165.016L232.474 167.95L235.289 172.771L238.394 174.561L242.279 171.114L247.047 173.87L248.651 180.488L256.666 185.123C257.062 186.807 257.558 188.466 258.151 190.092C258.203 190.255 258.27 190.426 258.337 190.612C260.996 197.594 265.222 203.573 269.991 206.328C270.562 206.667 271.161 206.958 271.781 207.197C272.108 207.328 272.443 207.439 272.784 207.532C273.081 207.611 273.378 207.678 273.675 207.732C274.613 207.903 275.574 207.903 276.512 207.732L276.898 207.636C277.083 207.598 277.264 207.546 277.441 207.48L277.857 207.316C278.004 207.263 278.145 207.196 278.28 207.116C278.417 207.056 278.551 206.989 278.681 206.915L278.874 206.796C278.909 206.785 278.942 206.767 278.971 206.744C280.033 206.135 282.647 204.62 283.36 204.219C286.896 202.169 289.183 196.985 289.183 189.654C289.178 187.761 289.031 185.872 288.745 184.001V184.001Z" fill="#59114D"/>
<path d="M276.564 192.856C274.722 191.793 273.237 188.644 273.237 185.822C273.237 182.999 274.722 181.566 276.564 182.62C278.406 183.675 279.884 186.832 279.884 189.662C279.884 192.492 278.399 193.918 276.564 192.856ZM284.088 186.683C282.528 176.032 276.802 165.485 269.976 161.549C266.812 159.721 263.885 159.588 261.509 160.843L261.263 160.992C261.068 161.099 260.88 161.218 260.699 161.348C260.339 161.596 260.001 161.874 259.689 162.18L259.54 162.321C259.407 162.455 259.265 162.611 259.139 162.759C259.013 162.908 258.82 163.138 258.671 163.339C258.356 163.754 258.071 164.19 257.817 164.646C257.683 164.876 257.557 165.121 257.438 165.389C256.746 166.824 256.246 168.345 255.953 169.912L214.515 145.98V148.951L214.908 149.174L215.28 149.39V149.984L214.537 150.422V152.145L220.16 164.029L225.715 167.245L227.565 165.017L232.467 167.951L235.282 172.772L238.387 174.562L242.271 171.115L247.04 173.871L248.644 180.489L256.666 185.124C257.062 186.808 257.558 188.467 258.151 190.093C258.203 190.256 258.27 190.427 258.337 190.612C260.996 197.594 265.222 203.574 269.991 206.329C270.562 206.668 271.161 206.959 271.781 207.198C272.108 207.328 272.443 207.44 272.784 207.532C273.081 207.612 273.378 207.678 273.675 207.733C274.613 207.904 275.574 207.904 276.512 207.733L276.898 207.636C277.083 207.599 277.264 207.547 277.441 207.48L277.857 207.317C278.004 207.264 278.146 207.197 278.28 207.116C278.417 207.057 278.551 206.99 278.681 206.916L278.874 206.797C278.909 206.786 278.942 206.768 278.971 206.745C282.358 204.606 284.534 199.496 284.534 192.343C284.521 190.448 284.372 188.557 284.088 186.683V186.683Z" fill="#59114D"/>
<path opacity="0.4" d="M279.885 189.654C279.885 192.484 278.399 193.917 276.565 192.855C274.73 191.793 273.237 188.651 273.237 185.821C273.237 182.991 274.723 181.558 276.565 182.62C277.095 182.943 277.557 183.367 277.924 183.868C278.083 185.702 278.749 187.456 279.848 188.933C279.875 189.173 279.887 189.413 279.885 189.654V189.654Z" fill="black"/>
<path opacity="0.4" d="M289.169 189.646C289.169 196.977 286.881 202.162 283.345 204.212C282.603 204.613 280.018 206.128 278.956 206.737C282.343 204.598 284.519 199.488 284.519 192.335C284.511 190.443 284.367 188.554 284.088 186.683C282.528 176.032 276.802 165.485 269.976 161.548C266.812 159.721 263.885 159.587 261.509 160.842L265.891 158.317C268.32 156.898 271.35 156.965 274.626 158.859C281.451 162.803 287.178 173.343 288.738 184.002C289.021 185.87 289.165 187.757 289.169 189.646V189.646Z" fill="white"/>
<path d="M284.519 192.321C284.519 199.473 282.343 204.584 278.956 206.723C280.018 206.114 282.633 204.598 283.346 204.197C286.881 202.147 289.169 196.963 289.169 189.632C289.169 189.365 289.169 189.09 289.169 188.815L284.519 191.504C284.512 191.793 284.519 192.061 284.519 192.321Z" fill="#59114D"/>
<path opacity="0.1" d="M284.519 192.321C284.519 199.473 282.343 204.584 278.956 206.723C280.018 206.114 282.633 204.598 283.346 204.197C286.881 202.147 289.169 196.963 289.169 189.632C289.169 189.365 289.169 189.09 289.169 188.815L284.519 191.504C284.512 191.793 284.519 192.061 284.519 192.321Z" fill="black"/>
<path opacity="0.15" d="M256.131 172.95V174.457L214.522 150.437L215.287 149.991V149.367L256.131 172.95Z" fill="black"/>
<path opacity="0.15" d="M256.131 173.573V174.457L214.522 150.436L215.287 149.991V149.983L256.131 173.573Z" fill="black"/>
<path opacity="0.15" d="M274.225 204.205C272.648 204.164 271.11 203.705 269.768 202.875C262.987 198.961 257.468 187.315 257.468 176.916C257.468 170.848 259.303 166.317 262.504 164.467C264.732 163.175 267.369 163.338 270.139 164.935C276.913 168.85 282.432 180.533 282.432 190.932C282.432 196.993 280.597 201.531 277.396 203.373C276.431 203.924 275.337 204.211 274.225 204.205ZM265.72 164.356C264.73 164.351 263.757 164.607 262.898 165.099C259.979 166.785 258.233 171.204 258.233 176.909C258.233 187.069 263.581 198.448 270.162 202.222C272.68 203.707 275.064 203.841 277.047 202.697C279.966 201.011 281.712 196.599 281.712 190.895C281.712 180.726 276.364 169.355 269.79 165.574C268.562 164.827 267.158 164.417 265.72 164.386V164.356Z" fill="black"/>
<path opacity="0.4" d="M257.409 165.373C256.716 166.809 256.217 168.33 255.923 169.897L214.485 145.965L219.135 143.284L257.409 165.373Z" fill="white"/>
<path d="M311.266 167.698C313.435 163.591 315.916 154.366 317.149 149.709C318.901 143.098 316.064 138.939 312.841 138.768C310.828 139.08 304.195 163.197 304.195 163.197C303.452 163.784 293.373 168.902 290.135 170.187C289.556 170.406 288.916 170.406 288.337 170.187C286.785 169.622 285.723 169.726 284.2 169.577C283.004 169.459 282.403 169.035 282.247 169.288C282.105 169.601 282.087 169.957 282.196 170.283C282.304 170.609 282.532 170.882 282.833 171.048C283.489 171.43 284.187 171.734 284.913 171.954C283.611 172.349 282.255 172.532 280.895 172.496C277.775 172.43 276.654 173.781 279.075 176.953C280.561 178.929 283.019 179.553 288.508 177.659C290.083 177.109 292.222 176.047 294.22 175.326C298.335 173.841 299.419 173.663 302.553 172.6C307.121 171.056 310.3 169.525 311.266 167.698Z" fill="#FFA8A7"/>
<path d="M311.63 138.144C313.524 138.404 315.343 138.827 316.465 140.372C317.587 141.917 318.485 144.086 317.386 149.991C316.544 154.144 315.417 158.234 314.014 162.232C314.014 162.232 309.602 164.118 304.915 159.335L308.139 146.871C308.139 146.871 308.659 138.768 311.63 138.144Z" fill="#455A64"/>
</svg>
